<mxfile host="app.diagrams.net" agent="Mozilla/5.0 (X11; Linux x86_64) AppleWebKit/537.36 (KHTML, like Gecko) Chrome/127.0.0.0 Safari/537.36" version="27.1.6">
  <diagram name="Page-1" id="QRijamrOqN7thz4wr3Sr">
    <mxGraphModel dx="2073" dy="1815" grid="1" gridSize="10" guides="1" tooltips="1" connect="1" arrows="1" fold="1" page="1" pageScale="1" pageWidth="827" pageHeight="1169" math="0" shadow="0">
      <root>
        <mxCell id="0" />
        <mxCell id="1" parent="0" />
        <mxCell id="_v2L5gnWxGQKS_tVc0L4-19" value="" style="rounded=0;whiteSpace=wrap;html=1;fillColor=#bac8d3;strokeColor=#23445d;" parent="1" vertex="1">
          <mxGeometry x="150" y="20" width="730" height="410" as="geometry" />
        </mxCell>
        <mxCell id="_v2L5gnWxGQKS_tVc0L4-24" value="" style="rounded=0;whiteSpace=wrap;html=1;fillColor=#b1ddf0;strokeColor=#10739e;" parent="1" vertex="1">
          <mxGeometry x="606" y="35" width="260" height="110" as="geometry" />
        </mxCell>
        <mxCell id="_v2L5gnWxGQKS_tVc0L4-25" value="&lt;b&gt;LiteLLM NAMESPACE&lt;/b&gt;" style="text;html=1;align=center;verticalAlign=middle;whiteSpace=wrap;rounded=0;" parent="1" vertex="1">
          <mxGeometry x="606" y="35" width="140" height="30" as="geometry" />
        </mxCell>
        <mxCell id="_v2L5gnWxGQKS_tVc0L4-17" value="" style="rounded=0;whiteSpace=wrap;html=1;fillColor=#b1ddf0;strokeColor=#10739e;" parent="1" vertex="1">
          <mxGeometry x="170" y="35" width="396" height="110" as="geometry" />
        </mxCell>
        <mxCell id="_v2L5gnWxGQKS_tVc0L4-15" value="" style="rounded=0;whiteSpace=wrap;html=1;fillColor=#b1ddf0;strokeColor=#10739e;" parent="1" vertex="1">
          <mxGeometry x="170" y="212.5" width="396" height="200" as="geometry" />
        </mxCell>
        <mxCell id="Bmr6mjaVhDHBtddAEu46-1" value="" style="rounded=0;whiteSpace=wrap;html=1;fillColor=#bac8d3;strokeColor=#23445d;" parent="1" vertex="1">
          <mxGeometry x="900" y="122.5" width="329" height="120" as="geometry" />
        </mxCell>
        <mxCell id="o9p465xVWqtDFQp3389N-6" value="" style="sketch=0;points=[[0,0,0],[0.25,0,0],[0.5,0,0],[0.75,0,0],[1,0,0],[0,1,0],[0.25,1,0],[0.5,1,0],[0.75,1,0],[1,1,0],[0,0.25,0],[0,0.5,0],[0,0.75,0],[1,0.25,0],[1,0.5,0],[1,0.75,0]];outlineConnect=0;fontColor=#232F3E;fillColor=#ED7100;strokeColor=#ffffff;dashed=0;verticalLabelPosition=bottom;verticalAlign=top;align=center;html=1;fontSize=12;fontStyle=0;aspect=fixed;shape=mxgraph.aws4.resourceIcon;resIcon=mxgraph.aws4.eks;" parent="1" vertex="1">
          <mxGeometry x="802" y="352" width="78" height="78" as="geometry" />
        </mxCell>
        <mxCell id="_v2L5gnWxGQKS_tVc0L4-21" style="edgeStyle=orthogonalEdgeStyle;rounded=0;orthogonalLoop=1;jettySize=auto;html=1;entryX=0;entryY=0.5;entryDx=0;entryDy=0;dashed=1;dashPattern=1 4;" parent="1" source="o9p465xVWqtDFQp3389N-10" target="Bmr6mjaVhDHBtddAEu46-3" edge="1">
          <mxGeometry relative="1" as="geometry">
            <Array as="points">
              <mxPoint x="738" y="206" />
            </Array>
          </mxGeometry>
        </mxCell>
        <mxCell id="o9p465xVWqtDFQp3389N-10" value="" style="rounded=0;whiteSpace=wrap;html=1;" parent="1" vertex="1">
          <mxGeometry x="658" y="70" width="160" height="40" as="geometry" />
        </mxCell>
        <mxCell id="_v2L5gnWxGQKS_tVc0L4-62" style="edgeStyle=orthogonalEdgeStyle;rounded=0;orthogonalLoop=1;jettySize=auto;html=1;exitX=1;exitY=0.5;exitDx=0;exitDy=0;entryX=0;entryY=0.5;entryDx=0;entryDy=0;dashed=1;dashPattern=1 4;" parent="1" source="o9p465xVWqtDFQp3389N-15" target="Bmr6mjaVhDHBtddAEu46-2" edge="1">
          <mxGeometry relative="1" as="geometry">
            <Array as="points">
              <mxPoint x="510" y="90" />
              <mxPoint x="510" y="162" />
            </Array>
          </mxGeometry>
        </mxCell>
        <mxCell id="o9p465xVWqtDFQp3389N-15" value="" style="rounded=0;whiteSpace=wrap;html=1;" parent="1" vertex="1">
          <mxGeometry x="293" y="70" width="150" height="40" as="geometry" />
        </mxCell>
        <mxCell id="o9p465xVWqtDFQp3389N-16" value="" style="shape=image;verticalLabelPosition=bottom;labelBackgroundColor=default;verticalAlign=top;aspect=fixed;imageAspect=0;image=https://competitions.langflow.org/logo.svg;" parent="1" vertex="1">
          <mxGeometry x="302.11" y="70" width="129.39" height="40" as="geometry" />
        </mxCell>
        <mxCell id="o9p465xVWqtDFQp3389N-17" value="&lt;b&gt;DEV NAMESPACE&lt;/b&gt;" style="text;html=1;align=center;verticalAlign=middle;whiteSpace=wrap;rounded=0;" parent="1" vertex="1">
          <mxGeometry x="170" y="35" width="127" height="30" as="geometry" />
        </mxCell>
        <mxCell id="o9p465xVWqtDFQp3389N-20" value="" style="rounded=0;whiteSpace=wrap;html=1;" parent="1" vertex="1">
          <mxGeometry x="287.99999999999994" y="257.5" width="150" height="40" as="geometry" />
        </mxCell>
        <mxCell id="o9p465xVWqtDFQp3389N-21" value="" style="shape=image;verticalLabelPosition=bottom;labelBackgroundColor=default;verticalAlign=top;aspect=fixed;imageAspect=0;image=https://competitions.langflow.org/logo.svg;" parent="1" vertex="1">
          <mxGeometry x="298.2999999999999" y="257.5" width="129.39" height="40" as="geometry" />
        </mxCell>
        <mxCell id="o9p465xVWqtDFQp3389N-22" value="&lt;b&gt;Langflow Prod Flow-1&lt;/b&gt;" style="text;html=1;align=center;verticalAlign=middle;whiteSpace=wrap;rounded=0;" parent="1" vertex="1">
          <mxGeometry x="299.49999999999994" y="297.5" width="127" height="30" as="geometry" />
        </mxCell>
        <mxCell id="o9p465xVWqtDFQp3389N-23" value="" style="rounded=0;whiteSpace=wrap;html=1;" parent="1" vertex="1">
          <mxGeometry x="287.99999999999994" y="337.5" width="150" height="40" as="geometry" />
        </mxCell>
        <mxCell id="o9p465xVWqtDFQp3389N-24" value="" style="shape=image;verticalLabelPosition=bottom;labelBackgroundColor=default;verticalAlign=top;aspect=fixed;imageAspect=0;image=https://competitions.langflow.org/logo.svg;" parent="1" vertex="1">
          <mxGeometry x="298.3099999999999" y="337.5" width="129.39" height="40" as="geometry" />
        </mxCell>
        <mxCell id="o9p465xVWqtDFQp3389N-25" value="&lt;b&gt;Langflow Prod Flow-2&lt;/b&gt;" style="text;html=1;align=center;verticalAlign=middle;whiteSpace=wrap;rounded=0;" parent="1" vertex="1">
          <mxGeometry x="300.7" y="377.5" width="127" height="30" as="geometry" />
        </mxCell>
        <mxCell id="o9p465xVWqtDFQp3389N-35" value="" style="shape=image;verticalLabelPosition=bottom;labelBackgroundColor=default;verticalAlign=top;aspect=fixed;imageAspect=0;image=data:image/jpeg,/9j/4Q/+RXhpZgAATU0AKgAAAAgABgESAAMAAAABAAEAAAEaAAUAAAABAAAAVgEbAAUAAAABAAAAXgEoAAMAAAABAAIAAAITAAMAAAABAAEAAIdpAAQAAAABAAAAZgAAAAAAAABIAAAAAQAAAEgAAAABAAeQAAAHAAAABDAyMjGRAQAHAAAABAECAwCgAAAHAAAABDAxMDCgAQADAAAAAQABAACgAgAEAAAAAQAAA+igAwAEAAAAAQAAAQGkBgADAAAAAQAAAAAAAAAAAAAAAAAAAAAAAAAAAAAAAAAAAAAAAAAAAAAAAAAAAAAAAAAAAAAAAAAAAAAAAAAAAAAAAAAAAAAAAAAAAAAAAAAAAAAAAAAAAAAAAAAAAAAAAAAAAAAAAAAAAAAAAAAAAAAAAAAAAAAAAAAAAAAAAAAAAAAAAAAAAAAAAAAAAAAAAAAAAAAAAAAAAAAAAAAAAAAAAAAAAAAAAAAAAAAAAAAAAAAAAAAAAAAAAAAAAAAAAAAAAAAAAAAAAAAAAAAAAAAAAAAAAAAAAAAAAAAAAAAAAAAAAAAAAAAAAAAAAAAAAAAAAAAAAAAAAAAAAAAAAAAAAAAAAAAAAAAAAAAAAAAAAAAAAAAAAAAAAAAAAAAAAAAAAAAAAAAAAAAAAAAAAAAAAAAAAAAAAAAAAAAAAAAAAAAAAAAAAAAAAAAAAAAAAAAAAAAAAAAAAAAAAAAAAAAAAAAAAAAAAAAAAAAAAAAAAAAAAAAAAAAAAAAAAAAAAAAAAAAAAAAAAAAAAAAAAAAAAAAAAAAAAAAAAAAAAAAAAAAAAAAAAAAAAAAAAAAAAAAAAAAAAAAAAAAAAAAAAAAAAAAAAAAAAAAAAAAAAAAAAAAAAAAAAAAAAAAAAAAAAAAAAAAAAAAAAAAAAAAAAAAAAAAAAAAAAAAAAAAAAAAAAAAAAAAAAAAAAAAAAAAAAAAAAAAAAAAAAAAAAAAAAAAAAAAAAAAAAAAAAAAAAAAAAAAAAAAAAAAAAAAAAAAAAAAAAAAAAAAAAAAAAAAAAAAAAAAAAAAAAAAAAAAAAAAAAAAAAAAAAAAAAAAAAAAAAAAAAAAAAAAAAAAAAAAAAAAAAAAAAAAAAAAAAAAAAAAAAAAAAAAAAAAAAAAAAAAAAAAAAAAAAAAAAAAAAAAAAAAAAAAAAAAAAAAAAAAAAAAAAAAAAAAAAAAAAAAAAAAAAAAAAAAAAAAAAAAAAAAAAAAAAAAAAAAAAAAAAAAAAAAAAAAAAAAAAAAAAAAAAAAAAAAAAAAAAAAAAAAAAAAAAAAAAAAAAAAAAAAAAAAAAAAAAAAAAAAAAAAAAAAAAAAAAAAAAAAAAAAAAAAAAAAAAAAAAAAAAAAAAAAAAAAAAAAAAAAAAAAAAAAAAAAAAAAAAAAAAAAAAAAAAAAAAAAAAAAAAAAAAAAAAAAAAAAAAAAAAAAAAAAAAAAAAAAAAAAAAAAAAAAAAAAAAAAAAAAAAAAAAAAAAAAAAAAAAAAAAAAAAAAAAAAAAAAAAAAAAAAAAAAAAAAAAAAAAAAAAAAAAAAAAAAAAAAAAAAAAAAAAAAAAAAAAAAAAAAAAAAAAAAAAAAAAAAAAAAAAAAAAAAAAAAAAAAAAAAAAAAAAAAAAAAAAAAAAAAAAAAAAAAAAAAAAAAAAAAAAAAAAAAAAAAAAAAAAAAAAAAAAAAAAAAAAAAAAAAAAAAAAAAAAAAAAAAAAAAAAAAAAAAAAAAAAAAAAAAAAAAAAAAAAAAAAAAAAAAAAAAAAAAAAAAAAAAAAAAAAAAAAAAAAAAAAAAAAAAAAAAAAAAAAAAAAAAAAAAAAAAAAAAAAAAAAAAAAAAAAAAAAAAAAAAAAAAAAAAAAAAAAAAAAAAAAAAAAAAAAAAAAAAAAAAAAAAAAAAAAAAAAAAAAAAAAAAAAAAAAAAAAAAAAAAAAAAAAAAAAAAAAAAAAAAAAAAAAAAAAAAAAAAAAAAAAAAAAAAAAAAAAAAAAAAAAAAAAAAAAAAAAAAAAAAAAAAAAAAAAAAAAAAAAAAAAAAAAAAAAAAAAAAAAAAAAAAAAAAAAAAAAAAAAAAAAAAAAAAAAAAAAAAAAAAAAAAAAAAAAAAAAAAAAAAAAAAAAAAAAAAAAAAAAAAAAAAAAAAAAAAAAAAAAAAAAAAAAAAAAAAAAAAAAAAAAAAAAAAAAAAAAAAAAAAAAAAAAAAAAAAAAAAAAAAAAAAAAAAAAAAAAAAAAAAAAAAAAAAAAAAAAAAAAAAAAAAAAAAAAAAAAAAAAAAAAAAAAAAAAAAAAAAAAAAAAAAAAAAAAAAAAAAAAAAAAAAAAAAAAAAAAAAAAAAAAAAAAAAAAAAAAAAAAAAAAAAAAAAAAAAAAAAAAAAAAAAAAAAAAAAAAAAAAAAAAAAAAAAAAAAAAAAAAAAAAAAAAAAAAAAAAAAAAAAAAAAAAAAAAAAAAAAAAAAAAAAAAAAAAAAAAAAAAAAAAAAAAAAAAAAAAAAAAAAAAAAAAAAAAAAAAAAAAAAAAAAAAAAAAAAAAAAAAAAAAAAAAAAAAAAAAAAAAAAAAAAAAAAAAAAAAAAAAAAAAAAAAAAAAAAAAAAAAAAAAAAAAAAAAAAAAAAAAAAAAAAAAAAAAAAAAAAAAAAAAAAAAAAAAAAAAAAAAAAAAAAAAAAAAAAAAAAAAAAAAAAAAAAAAAAAAAAAAAAAAAAAAAAAAAAAAAAAAAAAAAAAAAAAAAAAAAAAAAAAAAAAAAAAAAAAAAAAAAAAAAAAAAAAAAAAAAAAAAAAAAAAAAAAAAAAAAAAAAAAAAAAAAAAAAAAAAAAAAAAAAAAAAAAAAAAAAAAAAAAAAAAAAAAAAAAAAAAAAAAAAAAAAAAAAAAAAAAAAAAAAAAAAAAAAAAAAAAAAAAAAAAAAAAAAAAAAAAAAAAAAAAAAAAAAAAAAAAAAAAAAAAAAAAAAAAAAAAAAAAAAAAAAAAAAAAAAAAAAAAAAAAAAAAAAAAAAAAAAAAAAAAAAAAAAAAAAAAAAAAAAAAAAAAAAAAAAAAAAAAAAAAAAAAAAAAAAAAAAAAAAAAAAAAAAAAAAAAAAAAAAAAAAAAAAAAAAAAAAAAAAAAAAAAAAAAAAAAAAAAAAAAAAAAAAAAAAAAAAAAAAAAAAAAAAAAAAAAAAAAAAAAAAAAAAAAAAAAAAAAAAAAAAAAAAAAAAAAAAAAAAAAAAAAAAAAAAAAAAAAAAAAAAAAAAAAAAAAAAAAAAAAAAAAAAAAAAAAAAAAAAAAAAAAAAAAAAAAAAAAAAAAAAAAAAAAAAAAAAAAAAAAAAAAAAAAAAAAAAAAAAAAAAAAAAAAAAAAAAAAAAAAAAAAAAAAAAAAAAAAAAAAAAAAAAAAAAAAAAAAAAAAAAAAAAAAAAAAAAAAAAAAAAAAAAAAAAAAAAAAAAAAAAAAAAAAAAAAAAAAAAAAAAAAAAAAAAAAAAAAAAAAAAAAAAAAAAAAAAAAAAAAAAAAAAAAAAAAAAAAAAAAAAAAAAAAAAAAAAAAAAAAAAAAAAAAAAAAAAAAAAAAAAAAAAAAAAAAAAAAAAAAAAAAAAAAAAAAAAAAAAAAAAAAAAAAAAAAAAAAAAAAAAAAAAAAAAAAAAAAAAAAAAAAAAAAAAAAAAAAAAAAAAAAAAAAAAAAAAAAAAAAAAAAAAAAAAAAAAAAAAAAAAAAAAAAAAAAAAAAAAAAAAAAAAAAAAAAAAAAAAAAAAAAAAAAAAAAAAAAAAAAAAAAAAAAAAAAAAAAAAAAAAAAAAAAAAAAAAAAAAAAAAAAAAAAAAAAAAAAAAAAAAAAAAAAAAAAAAAAAAAAAAAAAAAAAAAAAAAAAAAAAAAAAAAAAAAAAAAAAAAAAAAAAAAAAAAAAAAAAAAAAAAAAAAAAAAAAAAAAAAAAAAAAAAAAAAAAAAAAAAAAAAAAAAAAAAAAAAAAAAAAAAAAAAAAAAAAAAAAAAAAAAAAAAAAAAAAAAAAAAAAAAAAAAAAAAAAAAAAAAAAAAAAAAAAAAAAAAAAAAAAAAAAAAAAAAAAAAAAAAAAAAAAAAAAAAAAAAAAAAAAAAAAAAAAAAAAAAAAAAAAAAAAAAAAAAAAAAAAAAAAAAAAAAAAAAAAAAAAAAAAAAAAAAAAAAAAAAAAAAAAAAAAAAAAAAAAAAAAAAAAAAAAAAAAAAAAAAAAAAAAAAAAAAAAAAAAAAAAAAAAAAAAAAAAAAAAAAAAAAAAAAAAAAAAAAAAAAAAAAAAAAAAAAAAAAAAAAAAAAAAAAAAAAAAAAAAAAAAAAAAAAAAAAAAAAAAAAAAAAAAAAAAAAAAAAAAAAAAAAAAAAAAAAAAAAAAAAAAAAAAAAAAAAAAAAAAAAAAAAAAAAAAAAAAAAAAAAAAAAAAAAAAAAAAAAAAAAAAAAAAAAAAAAAAAAAAAAAAAAAAAAAAAAAAAAAAAAAAAAAAAAAAAAAAAAAAAAAAAAAAAAAAAAAAAAAAAAAAAAAAAAAAAAAAAAAAAAAAAAAAAAAAAAAAAAAAAAAAAAAAAAAAAAAAAAAAAAAAAAAAAAAAAAAAAAAAAAAAAAAAAAAAAAAAAAAAAAAAAAAAAAAAAAAAAAAAAAAAAAAAAAAAAAAAAAAAAAAAAAAAAAAAAAAAAAAAAAAAAAAAAAAAAAAAAAAAAAAAAAAAAAAAAAAAAAAAAAAAAAAAAAAAAAAAAAAAAAAAAAAAAAAAAAAAAAAAAAAAAAAAAAAAAAAAAAAAAAAAAAAAAAAAAAAAAAAAAAAAAAAAAAAAAAAAAAAAAAAAAAAAAAAAAAAAAAAAAAAAAAAAAAAAAAAAAAAAAAAAAAAAAAAAAAAAAAAAAAAAAAAAAAAAAAAAAAAAAAAAAAAAAAAAAAAAAAAAAAAAAAAAAAAAAAAAAAAAAAAAAAAAAAAAAAAAAAAAAAAAAAAAAAAAAAAAAAAAAAAAAAAAAAAAAAAAAAAAAAAAAAAAAAAAAAAAAAAAAAAAAAAAAAAAAAAAAAAAAAAAAAAAAAAAAAAAAAAAAAAAAAAAAAAAAAAAAAAAAAAAAAAAAAAAAAAAAAAAAAAAAAAAAAAAAAAAAAAAAAAAAAAAAAAAAAAAAAAAAAAAAAAAAAAAAAAAAAAAAAAAAAAAAAAAAAAAAAAAAAAAAAAAAAAAAAAAAAAAAAAAAAAAAAAAAAAAAAAAAAAAAAAAAAAAAAAAAAAAAAAAAAAAAAAAAAAAAAAAAAAAAAAAAAAAAAAAAAAAAAAAAAAAAAAAAAAAAAAAAAAAAAAAAAAAAAAAAAAAAAAAAAAAAAAAAAAAAAAAAAAAAAAAAAAAAAAAAAAAAAAAAAAAAAAAAAAAAAAAAAAAAAAAAAAAAAAAAAAAAAAAAAAAAAAAAAAAAAAAAAAAAAAAAAAAAAAAAAAAAAAAAAAAAAAAAAAAAAAAAAAAAAAAAAAAAAAAAAAAAAAAAAAAAAAAAAAAAAAAAAAAAAA/9sAhAABAQEBAQECAQECAwICAgMEAwMDAwQFBAQEBAQFBgUFBQUFBQYGBgYGBgYGBwcHBwcHCAgICAgJCQkJCQkJCQkJAQEBAQICAgQCAgQJBgUGCQkJCQkJCQkJCQkJCQkJCQkJCQkJCQkJCQkJCQkJCQkJCQkJCQkJCQkJCQkJCQkJCQn/3QAEAC//wAARCAEBAuQDASIAAhEBAxEB/8QBogAAAQUBAQEBAQEAAAAAAAAAAAECAwQFBgcICQoLEAACAQMDAgQDBQUEBAAAAX0BAgMABBEFEiExQQYTUWEHInEUMoGRoQgjQrHBFVLR8CQzYnKCCQoWFxgZGiUmJygpKjQ1Njc4OTpDREVGR0hJSlNUVVZXWFlaY2RlZmdoaWpzdHV2d3h5eoOEhYaHiImKkpOUlZaXmJmaoqOkpaanqKmqsrO0tba3uLm6wsPExcbHyMnK0tPU1dbX2Nna4eLj5OXm5+jp6vHy8/T19vf4+foBAAMBAQEBAQEBAQEAAAAAAAABAgMEBQYHCAkKCxEAAgECBAQDBAcFBAQAAQJ3AAECAxEEBSExBhJBUQdhcRMiMoEIFEKRobHBCSMzUvAVYnLRChYkNOEl8RcYGRomJygpKjU2Nzg5OkNERUZHSElKU1RVVldYWVpjZGVmZ2hpanN0dXZ3eHl6goOEhYaHiImKkpOUlZaXmJmaoqOkpaanqKmqsrO0tba3uLm6wsPExcbHyMnK0tPU1dbX2Nna4uPk5ebn6Onq8vP09fb3+Pn6/9oADAMBAAIRAxEAPwD+/iiiigAooooAKKKKACiiigAooooAKKKKACiiigAooooAKKKKACiiigAooooAKKKKACiiigAooooAKKKKACiiigAooooAKKKKACiiigAooooAKKKKACiiigAooooAKKKKACiiigAooooAKKKKACiiigAooooAKKKKACiiigAooooAKKKKACiiigAooooAKKKKACiiigAooooAKKKKACiiigAooooAKKKKACiiigAooooAKKKKACiiigAooooA/9D+/iiiigAooooAKKKKACiiigBo29qDtPFR5wK5nW/FvhzwzA11r97BaxqCSZHCcfiacKcpvlgrnNXxVOlHnqSsjqxSZr5P8S/tg/CDRN0emTzao69Baxkrn03NgV41qv7dLnI0Xw+cdjNOo/MKDX0uD4NzKt8NJr10Pisw8Tclwz5Z1035a/kforzTd/tX5bT/ALbXxGlObbTLBB/tGRv8KqD9tP4pA5NlpxHpiT/GvWXhxmf8q+8+ffjZka+1L/wE/VbctKeK/Mew/bi8Yx4GpaJaS/8AXKVk/mDXpWhftxeFrgrH4i0e6tCerxFZlH5YP6VyYjgHNKav7O/pY9LB+LeR1ny+1t6qx92DH8NB9+K8U8KftA/CXxltj0rWYEmPHkzHypM+mGxXsUU8U0YeIgqRnIORXy+JwNWi+WrBp+aPvMBmuGxUefDzUl5NFyiiiuY9AKKKKACiiigAooooAKKKKACiiigAooooAKKKKACiiigAooooAKKKKACiiigAooooAKKKKACiiigAooooAKKKKACiiigAooooAKKKKACiiigAooooAKKKKACiiigAooooAKKKKACiiigAooooAKKKKACiiigAooooAKKKKACiiigAooooAKKKKACiiigAooooAKKKKAP/0f7+KKKKACiiigBKOAKOCKzdQ1Cz0yze9v5EhhiBZnc7VUD1J6URi27IznVjGPNLYuNnOe1eR/Ef4z+A/hhbb/Ed2GuCPkt4vmlf/gI6fU4r5E+M37Xc8zSeHPhadsYyr37Dr/1xB/8AQj+FfB97f3mo3T32oyvPPKdzySMWZj7k1+qcN+GtWulWxj5Y9uv/AAD8B418bKOFbw2V+9L+Z7L07/kfVnxD/bC8feJGay8IRrott0DcSTEf733V/AGvlTVNY1bX7w6hrlzLezscmSZy5/Xp+FVKK/ZcryLCYOPLh4Jfn95/N2ccT4/H1PaYqq5fl92wpJPWkoor1zwgooooAKKKKAGkBvvgNj15r0vwX8XfiN8P5V/4RrVJYoV/5YSEywn/AIAxOPwIrzaj+E/SuXF4GlWhyVoJrzO7BZniMNJVKEnF+TsfpR8N/wBs7QtUePTPiJbf2bI3H2mIl7cn3H3l/UV9s6Xq2n6xZJqOlzxzwSgFJIyGUg+hFfz9h/L49816j8Nvi74y+F+oC48N3R+z7v3lpKS0Lg9eOx9x0r8v4g8MKdROrl7s+z2+R+7cH+ONejajma5o/wAy3Xqj9xFIHJqQMDXz/wDBz47eFfizZ/Z7VvsmpRIDNayH5h/tIf4l9+vrXvi5KfNxX4ljcFUw9R0qys0f01lWaUMbSWIw0k4vsTUVASc1MowMVzHpC0UUUAFFFFABRRRQAUUUUAFFFFABRRRQAUUUUAFFFFABRRRQAUUUUAFFFFABRRRQAUUUUAFFFFABRRRQAUUUUAFFFFABRRRQAUUUUAFFFFABRRRQAUUUUAFFFFABRRRQAUUUUAFFFFABRRRQAUUUUAFFFFABRRRQAUUUUAFFFFABRRRQAUUUUAFFFFAH/9L+/iiiigBMjGaCMjFGABis3UtQtNKspL++kWKGFS7OxwFUDkk04xbdkZ1ZqEXKWxQ8ReIdI8L6PPrutzJb2tsheR2OAFH+eB3r8lfjp+0FrfxXvX0rTt9pocZ+SHPzTEHhpMfovQfWj9oX453fxU13+y9Kdo9Es3/cp081x/y0cd/9kHp161851++8DcERw0Vi8Urz6Lt/wT+RvE/xQqY6q8DgXakt3/N/wAooor9SPwwKKKKACiiigAooooAKKKKACiiigAzxkZz70pOaSigC9pupaho99FqmkTvbXNu2+OWM7WUj0Ir9Rf2f/wBpGz+IccfhPxWVt9aRcK/RLgDqVHZu5X8q/KypYJri1nju7SRopYmDo6HaysvIII6EV8txNwtQzGjZq0lsz7jgnjjFZPiVODvB7x6H9BUbKMVJuBHFfKf7N/x1j+J2jnQNcZY9askHmdhMnTzE9/7w7HnvX1YvQ1/MuY5fVwtaVGstUf3DkedUMww0cTh3eL/qxLRRRXEeuFFFFABRRRQAUUUUAFFFFABRRRQAUUUUAFFFFABRRRQAUUUUAFFFFABRRRQAUUUUAFFFFABRRRQAUUUUAFFFFABRRRQAUUUUAFFFFABRRRQAUUUUAFFFFABRRRQAUUUUAFFFFABRRRQAUUUUAFFFFABRRRQAUUUUAFFFFABRRRQAUUUUAFFFFAH/0/7+KKKKAImzt56V+cv7XPxokmuj8L/DUuETBv5FP4rF/Vvyr6++M/xHtfhf4Du/EsmGuAvlW8Z/ilfhR9O59hX4p319d6nfTalfuZZ7h2kkc9WZjkmv1Pw24bVeo8XVXux29f8AgH8/eNnGzw1FZZhn70tZeS7fMqHG7AH40UUV++n8pSlcKKKKCQooooAKKKKACiiigAooq/ZaZe6ip+zKm1Dgu7hB+ZNYYjE06UHUquyR04PBVcRUVGhFuT6IoUV6To/gnw/cY/tbXoI2/wCedqrXDfmOK9L0v4SaBeKv2Cx1bUi/QqscQP55NfDY3xOymjpz39EfpmX+DeeV0m6fKvNo+a6K+xrb4IXBwIfB9w3vcXWP5VqL8FvESf8AHv4Osxjp5lwSa+eqeNGXL4IN/cfS0PADMn8VSKPiQEHpS16p8W/DOreFdct7DVtOt9NeSHzFjt23ArkjJPrXlijHPXFfp+TZpDG4WOJgrKR+O57k8svxk8JUd3F2Nzwx4k1fwfr9p4m0GUw3dm4kQ9j6qfVWHBFftb8LfiJpPxO8H2vijSsAyLtmiz80co+8h+h6eor8Need31xX1B+yv8U38A+OR4e1FyNN1giMhj8sU4+430PQ18Z4h8MrF4b6xTXvx/Fdj9M8H+Nf7Oxn1OvL93P8H0P13GO1LUcfK5FSV/Oh/ZiCiiigAooooAKK/Mb/AIKnf8FJ/DX/AAS++Bei/G/xV4RvvGVvrOuQaGtpYXVraPG88M0qSM908aFcxbNoJYlhxjJH4Ij/AIPB/g6Rx8C/Ef8A4OtG/wDkigD+yeiv43Iv+DwH4PyyrDH8CvEe52CgDWtG5J4H/LxX9If/AATx/bQ0X/goP+yX4Y/aw8N+H7nwxY+J/tRh068nhuZY1trh4Axkt2aIh/L3rg5AIBwcgAH3BRRRQAUUUUAFFFfhT/wcJ/tQfH79kn9gNfip+zd4ouvCHiOTxToenf2haRW0si215crFMgW6hni+ZScEocGgD91qK/yhF/4L0/8ABXRsf8X68Sf+Aegf/Kmrum/8F3f+Cud5qVtZyfHrxGFmlSMkWegZAZgP+gT70Af6toIPSlr8vf8AgjR8cvir+0r/AMEy/hB8dPjfq8mv+K/EmiLdalqEqRRvcTGRgWKQqka8Doqge1fqFQAUV8Y/Hv8A4KF/sM/steNIvht+0h8XPCfgbXprSO+j0/W9Ut7K5a2lZkjmEUzqxjZo3AboSpHY14v/AMPof+CS3/Rx/wAPP/B/Zf8Ax2gD9NqK/N3QP+Cvn/BLbxbr9j4X8L/tBeAtR1LU7iKzs7S31yzkmnnnYRxxRoshLM7EKoAyScV+kIORmgBaKKKACiiigAooooAKKKKACiiigAoor4I/4KR/t2eG/wDgnF+yvqv7Uvizw/deJ7LS77T7FrCznhtpXbULhLZCJLhljG1nBOSOKAPveiv44D/weDfBIHafgb4k/wDB1ov/AMk07/iMF+CXb4GeJP8AwdaL/wDJNAH9jtFfnF/wTC/4KIeF/wDgpr+zfJ+0X4R8MXvhO1j1i90f7DfzQXEvmWLBHffblo8FsgYJ6Z6EV+jtABRRRQAUUUUAFFct4x8Qp4R8Jap4tliM66XZz3ZjU4LiCMuVBPAJxjNfx/Wn/B4V8Ebu0t79PgX4l8u5ijmTOr6Op2SoHU4a4BGQQcEA+oBoA/sqor+N7/iMH+C3/RDPEf8A4OtG/wDkiv1G/wCCVf8AwXF8Cf8ABUr4r+KfhX4R+Hmq+Dp/DGkwavJPqF9Z3aSx3E726qgtHfB3RNnJGMdORkA/duiiigAooooAKKKKACiv5hf20f8Ag5m+FH7Gf7Uvjf8AZf134S67r934J1CPTptQtdS0y3gnd7S3vMol1LFIMJcKDlcZ6E18vf8AEYL8Ef8AohviX/wdaJ/8k0Af2N0V/HKn/B378FZ5Ft4fgb4k8xyFQHWtEALHgAn7Txk457V/T5+x3+1R8Ov22P2ZfBf7Uvwp3pofjXS4dRhgmaNp7Z5B+9tp/KZkE0Dho5ACQGU4JoA+nqKKKACiiigAorx34+fGzwB+zb8GPFHx5+KF2tj4f8I6ZcapfzMcbYbaMuQPdsYA7k1/KCf+DwT4LR/u5PgV4lVh1VtZ0ZWB9CDcZBHcHkHg80Af2QUV/G//AMRhPwT/AOiF+JP/AAd6L/8AJFe+fsq/8HRfwj/aj/aR8D/s46T8H9f0e68b6xBo0F9PqmmTwwSTJI4Z44JXcgLEx4HOMZzjIB/VJRSAgjiloAKKKKAP/9T+/YrxTCuBmn55ArmfFuvW/hvw5e69dECO0heVs8cIuaqlTc5KEepz4mtGlTdWWy1PzK/bB+IDeI/HsfhGzkzaaOvzgdDO/J/75HFfIlaWsarda7q1zrd6S015K87k+shz/wDWrNr+tshy2ODwkMPHovx6n+e/FGcTx+PqYqX2m/u6L7gooor2D58KKKKACiiigAopeRyBmor640/RdNfW9fuotOsY87ri4YInH90dW/CpqTUNWzrwuAqV3y01dklJO8Npbm8v5EtoACTJMwRMD3NfL/i39pi3uZDpHwksWupMlft10uBn1ji/xrhNO+GnxI+KV0uoeMr24vcnO1idi/RRhRXHVxXKr7Lz/wAj7LLeELv967vsv8/8j2rxT+0R8OPDzNa6Y8us3A7WoxHn/fP9K+PPjD4g8W/HI2yCzuNKhtS3lG0uHjf5uu4rgH8RX15a/CD4XeA7MXnjjWNP01I+WM8yqQPoTWa/xw/Zd0V/sPht77xNcJwE0mzluAT/ALyqR+teDiszwjTVbVeex93l/C86M1LDrlflufnJD+zx42Yjy9a19R6rqEy/yIrXg+AnxGsZkubLxT4mgkjYMrR6veIQRz2ev0MHxc+JOt/ufhn8FNevR/DJeoLdT7kMQR+VRHwt/wAFBfF+Ronw40bQo5Ohu7je6/XAr56tneSRWsYfgfZUshzl6xnI+tv2Lf2p/FmpaTb/AAb+Ouo3F1r9upGnarO2DqESj/VzEYH2mMd8AOORzmv0Em8XWSoW8x2I9WP+NfiDF+yf/wAFCdUu1utZuNDt1RhIiwHayOpyrA4yCDX6m+GfBnxNk8P2beK4oxqHkoLnymJjMuPmKk44Jr8D4zw2Cp1/a4CScX07H7RwtXxboezxi95de55Z8eNRj1XxPaTRkkLb7eef4ia8Rr1b4u6VqWj67bW+pDa7QZH0ya8pr+meA/8AkT0fQ/ibxK/5HWI/xC/McbT0yPqKA7KQ8ZKMOQfQjofwpKVRk/09a+vnDm0kfExnyO8T9qfgJ8QR8Rvhtp+tzMPtMa/Z7gf9NYuD+Y5r2vGPpX5lfsT+MGsPE+peC7hv3d9ELmFf9uPhsfVTX6ZoeK/lTizKfqeOnRW269D+9vD3PlmOU0sQ372z9VoS0UUV82fbhRRRQB/K/wD8Hbn/ACj88Df9lC0r/wBEXNf51qfcH0r/AEUv+Dtz/lH54G/7KFpX/oi5r/OtT7g+lAGjpX/IVtf+u0f/AKEK/wBPv/g2g/5QwfBv/r1v/wD0umr/ADBNK/5Ctr/12j/9CFf6ff8AwbQf8oYPg3/163//AKXTUAfvNRRRQAUUUUAFfzYf8HUH/KMOH/sePDX/AKXJX9J9flh/wV5/4J++L/8AgpR+yX/wzl4J8S2fhK/XXNM1dL++tXvIR/Z8wm2GGJ4mO4gD744oA/yWov8AVr9K2dC/5D1h/wBfEP8A6GK/r1X/AIM7/wBpNcKPjz4X4/6lu7/+T6sWn/Bn3+0tZ3cN5H8ePCxaF1kGfDd1jKnI/wCX/wBqAP6R/wDg31/5Q4/AT/sXI/8A0Y9fsvXwz/wTg/ZO1n9hz9if4e/soeINYh1678E6aNPk1C3iaCO4KuWDrExYrkHoSa+5qAP84n/g641TUbH/AIKcaPFZzyRr/wAIBpDEKxAyb7Uef0r+Z3+3tb/5+5v++z/jX9Kn/B2EP+Nnmjn/AKp/pH/pdqNfzJ0Ae9fs36zq0/7T/wAJIZ7iV0b4geFgVLEg/wDE0gP8xX+zovev8Xf9mn/k6T4R/wDZQPC3/p0hr/aIXvQA6iiigAooooAKKKKACiiigAooooAK/nW/4Ol/+UPvi3/sY/C//p4t6/opr+db/g6X/wCUPvi3/sY/C/8A6eLegD/M6b7xpB1FK33jSDqKAP8AR/8A+DT3/lF7df8AY8eIP/Siv6cK/mP/AODT7/lF5c/9jz4h/wDSiv6cKACiiigAooooA8y+Nf8AyRrxb/2Bb/8A9J3r/FQ0r/kAaT/2DbH/ANJYq/2r/jX/AMka8W/9gW//APSd6/xUNK/5AGk/9g2x/wDSWKgC5X9cv/Bod/yd/wDFf/sR9N/9Od5X8jVf1y/8Gh3/ACd/8V/+xH03/wBOd5QB/oF0UUUAFFFFABRRRQB/lBf8F1/+Usvx7/7GqD/0xaVX5GV+uX/Bdf8A5SyfHv8A7GqD/wBMmlV+RtACEAjB6Gv7Q/8Ag1A/b6m0bxr4o/4J7fEC9zaa8LnxT4U81vuXkZT+2LNNzk4k3x3qgADc84HCV/F7Xsf7Pnxt+In7OHxs8K/HX4Tz+R4k8I6rbarppLFUe4tyR5L8geVcwvJayZ4CTM2MgUAf7Ra8qMU6vm/9kr9pT4f/ALYX7Nngv9pv4YS+ZovjTSrfUoFON8RlUeZC+M4eF90bDsQa+kKACkPApa8R/aJ+OngD9mP4G+LP2gvindiz8P8Ag7TLnVr6UgkiK2jLkKACSzYwoAJJOBQB/IL/AMHY/wC3xHb6T4b/AOCdvgS63PeeR4m8Xqoyv2ZHb+y7F8qVPn3ETTyLnPlQEHhxn+HUM7MWcliTkk8kk19BftTftDfED9q/9oPxf+0V8Uhs1/xlqcup3cO4MLbeBHBZq2BlbO3WK3BwMsjNj5jXz/QAV+j/APwSC/5Sg/AH/setP/8ASS+r84K/R3/gkH/ylB+AX/Y86f8A+kl9QB/rp0UUUAFFFFAH/9X+/b2FfKH7YPiFtF+EFxp0Zw+pzRWw/wB0nc36LX1aTg5r88f26NVOfD+hqeN01ww/3QFH86+o4MwftsypQ87/AHHwPibmDw2R15x3at9+h+fROTSUUV/VB/BoUUUUAFFFFA0hCQODWhp2m6hq1wLTTYWnkP8ACo6e5PQD3NbujeG7OW2/tnxJciwsV/iPMkvtGvc+9dnbQ+KPFlmdD8H2x0XR2OGbH+kTg9Sx9/yFfk/GfiphcuboUFz1O3RH7VwN4OYrM0sRinyU/wAX6Hyn8avjj8PvgYg0JZY9f8UzDKWUJLW9t6GZwMMR/dFfD1pZ/Fv4/eJBq2sQ3+v3G7EdvaxN5MQ7KucRIPxr95/BPwB8P2sKhbCKdsgsTGrsT7sRX0v4b+F62ESQ2kSWkY/hiUf0wK/PaXjDX5Lqj7/du/3I/aqXhBhqT5ac2odktfvPxd+G/wCxz8ebmFWS00zw3GOd94TeT/jFFtUH6sa+n9G/YP8A7UhWP4jeOta1JW5a2sWXT4fpiEb8f8Cr9V9P+H1hGuLvMmOfnbj8hxXVJpmgaWoVmRfpxXy2Z8b5ninepUt6aH3eXcHYDDK0IX9dT88PB/7B37OPh2eO8tPBdvf3K9Li+VrqT/vqYk19UaB8ItI0GFbfQdKs9OjXGFijjQD/AL5Fe0y+JPDFjgI6sR6Vz2sfFLwxoGn3Gr6i4t7S0ieaaViAqRoMsxPYACvBUq9eSppttn0EaFKlHmSSILPwZIF8t5h+Cn+tW7nwrpumWkuoajO6QwI0kjDA2qoyTwD2r+frx7/wcArpvia+s/h58O11PSoZnS1urq+8l50UkCTy1Q7Q+NyjrtIzXifiz/g4d8dt4fvrUfC6xUSQOjEam5IDDB/5Z1+tR8BOI1S9rOgvvj/meD/rdgVLl5vwP6Q7bXPDckCXFvpOsXAkAZWFv1U9DywrV07VPD2p38Wm3GjahaGbISS6h2R7gM4yGOCR0r+fDS/+DgO1TTLeOb4a3eVhQZGoRYOFFc34p/4L/Zs3vNO+Gd00lqGmUS6lGqkqD6DPevF/4hDnt7ex/FGn+tOD35vwP1J/a/tLex8fabDbIET7DnA/3zXyfXjfwT/biv8A9vTw3cfEzUPDq+HJNHuP7M8hbk3IcGNZ924gY+/jHtXslf0Nw5l1XCYGnh66tKKsz+HfEPEKpnNeUNnIKKKK9s+LPTPg34lPhD4paHrmcIlykUn+5N+7P8xX7iwgbOK/nuErQfv04aPDj6od39K/fXwrfjVfDun6mDkXNvFJ/wB9KDX4b4s4JKpSr91b7j+pfo/Zi3Qr4V9Gn+n6HR0UUV+Qn9FhRRRQB/K//wAHbn/KPzwN/wBlC0r/ANEXNf51qfcH0r/RS/4O3P8AlH54G/7KFpX/AKIua/zrU+4PpQBo6V/yFbX/AK7R/wDoQr/T7/4NoP8AlDB8G/8Ar1v/AP0umr/ME0r/AJCtr/12j/8AQhX+n3/wbQf8oYPg3/163/8A6XTUAfvNRRRQAUUUUAFfm3/wVI/4KC2P/BNP9mQftG3/AIWn8XIdY0/SBp9tcx2she/lEKsHk+XgkcEgepA5r9JK/my/4OoP+UYsH/Y8eGf/AEujoA/PP/iMM8Lf9EE1b/weab/8dqaD/g8E8M3M8dunwE1fdIwQAa7puSWOB/y0Ffwxen0Fa2hf8h2w/wCviH/0MUAf7CP7Av7WFn+3H+yJ4H/au07RpPD8HjbTxfx6fLKJngUsVClwAGPGelfjJ/wUp/4OLPDX/BO79rzWv2UNS+FeoeLLjR9P07UTqFtqdpaRsmoRF0Xy7hlOVKkHGemeMivsz/g30/5Q4fAX/sW0/wDRr1/E9/wc4nH/AAWS8bf9ix4Z/wDREtAHyX/wV0/4KJ6d/wAFNv2pbL9ojSvCdz4Ojs/DtnoZsbm6gvHZrWe5nMwlt2ZcN9o27Scjbk9a/LsZxzTicnNJQB2nwz8Xj4d/FPwh8SWt2vB4V8Q6VrptkYK04025S58kMxAUybdoYkAE5Nf2yn/g8M8JZ+X4Cavj/sO6b/8AHK/hmooA/wBLL/glt/wcE+Hv+Clv7Uzfsyaf8ML/AMHXA8P3uvC+udRtLxDHYzW8DR7LdmIJa4HJx0Nf0fV/mrf8GqX/AClk/wC6b+IP/Tjplf6VNABXlnxd+Mvwq+AngLUPil8aPEOn+F/DmlRmS71HU50treFRz8zuQM+gHJr44/4KWf8ABSX4If8ABM/4AzfGH4pltR1O+c2eg6DasovNUvtpIii3EBY0A3TSn5YkBJr/ADCv27f+ChX7T3/BRX4rv8TP2lNdN/bWtwZtG0C2LJoujqAUVbS1OBJIFY7rqYNKxJK+UMCgD+0H9qf/AIOzv2RPhxLc6P8Aso+D9Z+KtxB5ipqTlNF0d3jYr+6uLzbLMhIOHhiZcc9CK/J3xn/wdx/tzatceb4K+G/gPRY/+edzd6lesPqy28Q/Kv5Q5ZJJ5WnmYu7dWY5J/E81Jb2l1eMUs4nmYdRGpYj8gaAP6nfDn/B2v/wUEsdQS48SeBfh/qNuOsUMmp2xP/AzC+Pyr9G/2bf+Dvb4U+INUt9G/az+E2q+E45pSj6p4ZuF120iUAkO8CiK8CkDnEBwePev4SLqyvrEgX0EkOenmIUz9MgVW6EHuORQB/smfsq/tn/sw/tr/DuP4pfsv+NNN8YaO2BI9jKDLbuRny7iE4khcd1dQa+pK/xhf2df2lPjl+yj8WLL43/s++J77wn4nsnVje2TnbdIox5N9AT5d5ARwYpgSB9xozg1/pNf8EVP+C03gT/gqJ4AvfA/jixg8KfF/wAJQpJrOjROWtb61clI9U0x2AL27sCssR/eW0n7uTgozAH7wV/Ot/wdL/8AKH3xb/2Mfhf/ANPFvX9FNfzrf8HS/wDyh98W/wDYx+F//Txb0Af5nTfeNIOopW+8aQdRQB/o/wD/AAaff8ovLn/sefEP/pRX9OFfzH/8Gn3/ACi8uf8AsefEP/pRX9OFABRRRQAUUUUAeZfGv/kjXi3/ALAt/wD+k71/ioaV/wAgDSf+wbY/+ksVf7V/xr/5I14t/wCwLf8A/pO9f4qGlf8AIA0n/sG2P/pLFQBcr+uX/g0O/wCTv/iv/wBiPpv/AKc7yv5Gq/rl/wCDQ7/k7/4r/wDYj6b/AOnO8oA/0C6KKKACiiigAooooA/ygf8Aguv/AMpZPj3/ANjVB/6ZNKr8ja/XL/guv/ylk+Pf/Y1Qf+mTSq/I2gApMA8U4Ak4AyaSgD+0n/g09/b/ABofirxN/wAE8/iHfbbbWTP4m8JmZ+BeAj+1rKPJ435W9VeMs8+0YU4/umBB6V/i1/Ab4z+P/wBnX4y+GPjl8LJ/s/iLwlqdtqunNu2K09s3+qY9kniZ7eQ9o5WPWv8AYE/ZI/aW+H/7Yn7Nvgv9pn4Yy+ZovjLSrfUoFP3oWlX95C47PC+5GB6EUAfSHQV/E9/wdift8vY2Xhb/AIJ4eArzm5WDxT4uCdGhR2Gj2L5jKkS3ET3cgDhgtqisCk3P9fn7QPxv8Afs0fBHxZ+0F8VLv7F4c8GaVdavqM2CxWC1iMjBVUEszY2qoBJYgAZNf4+H7UP7Q3j/APau/aD8YftFfFL5fEHjPVZtVvodwcWzShY4LMMFXctjbRQWinaN3kljyxoA8FJJOSSSepPJP1pKKcQUPzDH1oAbX6O/8Eg/+UoPwC/7HnT/AP0kvq/OKv0d/wCCQf8AylB+AX/Y86f/AOkl9QB/rp0UUUAFFFFAH//W/v4r8sf22bgyfEfTLbtHp+f++pf/AK1fqdX5T/trAj4q2RI+U6cMH/tqa/QPDJf8KsfR/kfkHjfJrInb+aJ8f0UUV/SB/FwUUUUAGCeBX5zftnft66L8AFf4a/C6GPX/AB7cKMW5ObawRv8AlrcMP4u4i6nvWv8At8ftbXX7O/gm28IeAJI28aeJQ6WO/lbO3TAmunH+znCDu5HbJH4JeHYdG8Pyvq/iu+e8v7qUzXE87b5p5WOWd2PJJNfQZRkaxC5qrtE/WOCeFoWWMxCv2X6s/rS/4JneDvG/xe/Zb8G/E/4u3z+IPEmo2zy3Vyw2QpJvOQq8hQOgHJxX7AeHvh7pFhEGvWDkdvuoPw/xr8lf+CbXx6sNL/Ye8CWWmoqqlvPjd2zM2OBX1je/G+8vSS0jOvoDwPwr/P7jDEYejmmIS/mf5n9qZPFvDQS7I+6v+Eg8L6MPIjZWx/d6VkXnxNhRTHZoqgdzXwJP8Urt8lCcfj/hWVN8TbhuGDt+dfMf2xS6SPS9jP8AlPuO6+Il7OSWlx/u1zlx4tLg73JI9TXxDL8WUVijHBHXNZU/xej/ALw/Oh5kurMT7gPixB0cV+Kf/BXT9sU+GPCEf7NnhW5C33iCJZ9WZDhorENxCcdDOQR/ug17n8YP2rvDXwV+HOrfE3xXKBZ6VA0uwfelk6RxKO7MxAFfx8fFT9oPxJ8WvHmr/EbxhceZqes3LXMwD7ljzwsS5P3YlAUfTPev6H+j/wAN08Vjf7UxC9ynt5v/AIB8fxdjXCj7Cm9X+R6ff+I12E5B71474t8SRtpV2AwwYn7+1eXXXj3cxUN9eR/jXmPi/wAaeXpN5hsfum7+31r+0s44mg6b16H5phMqs7s+1LPXkGmwSb+DGhAz7CsPWfEqnS72Pd/y7yHr6CvnKx8Yzf2bbDLYESfyqlc+JppYb2LBINtNz9Bmvjv7fXKkmen/AGfI/pG/4I43Yu/gH4mfPTXsf+ScFfrpX4o/8ENNTOpfs6eL5D1TxKF/8kbY/wBa/a6vFxFaNSXOj+WOMl/wo1fUKKKKxPlhrrvVkPcEfmK/cH4H3bX3wm8PXROd9hBz9FxX4gV+2v7PoK/Bbw0rDB+wRcfhX5H4uL/Z6Pq/yP6H+j9L/a6y/ur8z2Oiiivws/qkKKKKAP5X/wDg7c/5R+eBv+yhaV/6Iua/zrU+4PpX+il/wduf8o/PA3/ZQtK/9EXNf51qfcH0oA0dK/5Ctr/12j/9CFf6ff8AwbQf8oYPg3/163//AKXTV/mCaV/yFbX/AK7R/wDoQr/T7/4NoP8AlDB8G/8Ar1v/AP0umoA/eaiiigAooooAK/my/wCDqD/lGLB/2PHhn/0ujr+k2v5sv+DqD/lGLB/2PHhn/wBLo6AP81z0+grV0L/kPWH/AF8Q/wDoYrK9PoK1dC/5D1h/18Q/+higD/VD/wCDfXn/AII4/AQD/oW0/wDRj18h/wDBSL/g3R8C/wDBRP8Aa01n9q7XPinqvhS91fTtP046faabZXUSpp0RjRt9wrtlizE4x1xzgV9e/wDBvp/yhx+Av/Ytx/8Ao16/ZegD/Jd/4K+f8E69E/4Ji/tUWP7O+geK7vxhBe+HbPXftt5a29pIrXM9zAYhHbqseF+zggkZO72r8sa/py/4OxP+UnGif9k+0r/0v1Cv5jaAO2+GHhCL4ifFXwf8NZ7hrOPxT4h0rQmuUUM8C6ldJbmZVYFWMQbcFYEEjB4r+34/8GeXwxJOPjxr2M/9ATSf/jNfxY/s1/8AJ0fwj/7H/wALf+nSGv8AaIXvQB/Ot/wS/wD+DfTwN/wTR/ahb9pvQfidqni+6OgXugLY3mnWVpGsd7Nbzs4a2VSSDbrgHI5Nf0G+Ite0nwtoN74m16dbWx0+CS5uJnOFjiiUu7E+iqCa3q/BP/g5H/aI1n4Bf8EpPHVj4Sufs2tePprLwfaOGKOg1aURXDKy8grBvPUfWgD+Az/gqR/wUD8W/wDBSn9sLxB+0NqU0yeGLZpNI8H2Du/l2mhwSHy5PKYALNfMPtErYyV8pckLX53U4pbxnyrNRHDGAkSjosajCj8AAKEUu4Re5wPxoA+0/wBgb9g/46/8FEv2hbD9n74E2aG4ZBd6rqd0G+w6Tp4bY15dlcMRn5YYVIeeT5VKqHlj/vq/Zm/4NjP+CZXwc8J2Vp8aNCvPi3r0Sf6Rf+I7iQWjSNjJg0y3aKzhA6KRGXx95mJJPlH/AAa+/BT4TfAf/gnVb/HHVb/TrfxL8W9RuNYuZJZ4FnXTbSRrPTICCQyoIYzMUPSSVz3r+ksfE34cD/mYNN/8C4f/AIugD8O/jz/wbR/8Epfi74fntPAfgmb4Zas8Rjh1LwpdzWm1uqtNaOz2lwFP8MsLDGR0Jr+ED/gpx/wS++O3/BML4zQfDf4pyRazomspJcaD4hs4zFa6lDF99fKYsYLqEYMtuWYbf3sTGPcsX+sJ/wALQ+HP/Qf03/wLg/8Ai6/F3/gvv8GfhR+1Z/wTH+IdtZX+m3fifwLaN4t8OyJPbPMl/pYMpjiLMcC5h328gGNySMueaAP8u2vo39lX9pb4rfsi/Hvwx+0J8FLtrbxH4XvUu7RAwVLtSQJ9PmLAjyL+IG3kyMKWjlHzRKa+dXks7hhc6Yxa1mCywE9TFIA0ec99pGfemcjocH1FAH+zf+y7+0P8Pv2s/wBnrwb+0l8LZ/P0DxnpVtqlpu4dFnjDGJx/C8bZVgehBFfiv/wdL/8AKH3xb/2Mfhf/ANPFvXyX/wAGk/7Rtx46/ZU+I37Nep3SyS+AfESapYwY2vHY+IovtjfVPt63gUgY4x1BNfWn/B0v/wAoffFv/Yx+F/8A08W9AH+Z033jSDqKVvvGkHUUAf6P/wDwaff8ovLn/sefEP8A6UV/ThX8x/8Awaff8ovLn/sefEP/AKUV/ThQAUUUUAFFFFAHmXxr/wCSNeLf+wLf/wDpO9f4qGlf8gDSf+wbY/8ApLFX+1f8a/8AkjXi3/sC3/8A6TvX+KhpX/IA0n/sG2P/AKSxUAXK/rl/4NDv+Tv/AIr/APYj6b/6c7yv5Gq/rl/4NDv+Tv8A4r/9iPpv/pzvKAP9AuiiigAooooAKKKKAP8AKB/4Lr/8pZPj3/2NUH/pk0qvyNr9cv8Aguv/AMpZPj3/ANjVB/6ZNKr8jaAPuD/gnB8DvA37SX7b3wv+BfxIiebRfFfiGLSbtUbafLuLDUHDZHP7uWGN/wDgNeDftGfAjxv+y7+0D42/Zv8AiTBJDrfgjWbrTJ/N2AzwrIz2dyoUkeXcWxR1PGTu4GCK+2v+CL//AClI+A2en/CcWP8A6btUr+hr/g7X/YK+w/8ACL/8FKfBFuscMBh8KeMtvygQzSEaVftlgo8mdjbu2Cdso9KAP4pMdjX9pH/Bpp+33NpHifxR/wAE6PH95m21FbjxV4SMjfdm3L/a1kmT3Zku1HcySgDCV/Fx5bRnDgg9CD2Nev8A7Pnxw8efsz/HTwd+0P8ADG4+za94J1e21azYkhXMJxNA/wDsXEDSQPwflkJAyBQB/Z7/AMHYn7fraPoHhr/gnb4AulMup/Z/FHi3ackW0ExOk2TDGP39zE1y4z9y2AIw9fwvpnncSSe56mvfP2of2jfiL+1x+0L4y/aR+K0ofXPGWqz6lOiHdHbxviO3tIjgZitbeOKCM4BYJuI3M1eDUAenfBj4N+Of2h/ix4a+BHwxiM3iLxlqltoumgKXCT3TYaZgP4beESXDdsR4719S/wDBT34AeBv2Wv2/Pih+zz8NEMWheCrzTNKtVOSzN/ZNtc3EzMxJLSTzsT6KFFf0Zf8ABp9+wR/wlnj/AMTf8FC/H9iHsPDnneGPCZkXIe8Yg6peLkf8s8LbIexRiPvV+H//AAXT/wCUvf7Qn/Yy2H/pjsKAPyar9Hf+CQf/AClB+AX/AGPOn/8ApJfV+cVfo7/wSD/5Sg/AL/sedP8A/SS+oA/106KKKACiiigD/9f+/U/Lk1+ZX7cOntF4w0PVcfLNayxZ90YH+Rr9NmOBxXwt+3FoouPB+keIFHNneGJj6LMpH8wK+w4BxXs80p+en3o/M/FzBe3yKqu1n9zR+aVFFFf1Afw2FFFFAH8z3/BZzV/EPw3/AGjNC8c3NlI2larocVrDdDO0T2s0jOuegO2QHHcAntX45t8adO1CbelwXYnOG/8Ar1/cJ8e/2fvhf+0r8O7n4afFbTlvrC4GUYcSwSDo8TdVYe1fyt/tOf8ABEz4/fCvULrXvgzKPFmhq5aJIhtvETsGj/iI77TWWLzDFQjy0dUf0HwHxRl9TDxw2JlyyWnqfq/+wd+0FbaZ+yp4S0kTAGG2YYz6uTXvvi34oaR4q1LT9S1K6WSOwEoNlOryW83m4+ZhG6HcuPlOSBnpX5I/s2fCL4t+DPhFo/h/VbG6sJbaHY0UsDZUgnI9a95Hhrx/H/rGPHbYRX+dfiBlX1jHVoV17rbuvmf1vw/mSoxhVw0tUtNmfea/Ev4dpHtk8N6K3vsu/wD5IrOu/iB8PLi3eK30TSbV2UgSolyWQnuP9I6ivigaf4mtYi9wBkc8kiuKvvEmuRM0cKhiPRj/AIV+ZUuAsAvhg/vZ9hLjbHtWcvwj/kfo5B8craxsYbGK7kuBbxrEZZm+d9oxuOD1NVJvj5bg5My/99GvzJuPEPitgcxf+PYrMk1fxTJndGfwOa+zp4e3upnyvP8AaPoH9qH4q/HPx5Hb+GfhnovhjXNECrJcJ4hJlVpwcgrF0AX1J5J7Yr4cl8N/tNfeX4cfC8n/AK9sf1r1r7d4nxtMZ/Mf4003viI/8sT+Y/xr7jJeNMXgKCoUVG3zODEZfTrPnZ5J/wAI9+0/3+Gfws/G2/8Ar1xvjLwt+1BPoF8h+F/wtZGgcMVtRuAI5I56+lfRf2zxFjIi/l/jUE1z4jnRozFlWGCMrz+tehLxGxs9Gl9zMv7GpM+UrLw18eYrKBf+FK/C5wI1G5o58nAHJ/f9fWtzSvCHx/e4me3+D/wwtpGtp9rQRysSSuAHV5iDGe4OO1fTCax4xhiEMasqrwAPLximS6x4wkRldWwwwcFQSPTIqP8AiIGPWmhUcnpKJ+oH/BI/RfiDoHwN8SWnxG8M+G/C11Jrm+K18MQeRbPF9kgBeRQzAy7wy5z9wLX6r1+ef/BOCS7l+EuufbgQ66uQA3XHkRelfoZX9hcDYydfKqNWe7R/BXiTDkzqvGPf/IKKKK+sPhiOXIhcj+638q/d74X2P9nfDrQ7ErsMVjApHofLFfhzoemSa3rVlo0Qy15cRQgf77gH9M1++mnQJZ2sVnF9yNVVfoox/Svxfxbr/wAGl6v8j+mfo+4L+PX9EaFFFFfi5/S4UUUUAfyv/wDB25/yj88Df9lC0r/0Rc1/nWp9wfSv9FL/AIO3P+Ufngb/ALKFpX/oi5r/ADrU+4PpQBo6V/yFbX/rtH/6EK/0+/8Ag2g/5QwfBv8A69b/AP8AS6av8wTSv+Qra/8AXaP/ANCFf6ff/BtB/wAoYPg3/wBet/8A+l01AH7zUUUUAFFFFABX82X/AAdQf8oxYP8AsePDP/pdHX9JtfzZf8HUH/KMWD/sePDP/pdHQB/muen0Fauhf8h6w/6+If8A0MVlen0Fauhf8h6w/wCviH/0MUAf6on/AAb6f8ocfgL/ANi3H/6Nev2Xr8aP+DfT/lDj8Bf+xbj/APRr1+y9AH+cD/wdif8AKTjRP+yfaV/6X6hX8xtf05f8HYn/ACk40T/sn2lf+l+oV/MbQB7N+zX/AMnR/CP/ALH/AMLf+nSGv9ohe9f4u/7Nf/J0fwjA/wCigeFv/TnDX+0QvegB1fx5f8Hhl7MP2Y/glowkZYp/HU106AkBmtNLuXjzjrtbBHvX9htfybf8Hdnwz1jxN+wx8O/ibp52weEPHtl9qJXcPI1O3msSc5G3DSLg+vagD/PXHQUtIoIUA9RS0AVptH0O7kM95p1nO7feaW3idz9WZSTUX/CO+GP+gTYf+AsP/wAbr+iP/gnB/wAG8fxS/wCCln7L9n+1B8P/AIy6T4RtrjU9S0mbSbnRH1GWCbTbl7csZ1uYQfNVVkC7PlDAZPWvvH/iDj/aQ/6OJ0H/AMJab/5OoA/jr/4R3wx/0CbD/wABYf8A43UkeheHoXWWDTLKNlIZWS2hVlI5BBCggj1Ff2If8Qcf7SH/AEcToP8A4S03/wAnUf8AEHH+0h/0cToP/hLTf/J1AH8fNFf2BD/gzh/aO6j9onQf/CWm/wDk6l/4g4P2j/8Ao4nQf/CWl/8Ak6gB/wDwaA6neQ/tN/GLR4yfIuPB2izSDsXh1PUVj/IOcV+4P/B0v/yh98W/9jH4X/8ATxb1d/4Ij/8ABE7x7/wSj8afEHxn8QviFp/jy48Z6dpem2xsdLfTTaR2E13O+4PPOH81rkdNuNnfPFL/AIOl/wDlD74t/wCxj8L/APp4t6AP8zpvvGkHUUrfeNIOooA/0f8A/g0+/wCUXlz/ANjz4h/9KK/pwr+Y/wD4NPv+UXlz/wBjz4h/9KK/pwoAKKKKACiiigDzL41/8ka8W/8AYFv/AP0nev8AFQ0r/kAaT/2DbH/0lir/AGrfjUQfg34tA/6At/8A+k71/ipaV/yANJ/7Btj/AOksVAFyv65f+DQ7/k7/AOK//Yj6b/6c7yv5Gq/rl/4NDv8Ak7/4r/8AYj6b/wCnO8oA/wBAuiiigAooooAKKKKAP8oH/guv/wApZPj3/wBjVB/6ZNKr8ja/XL/guv8A8pZPj3/2NUH/AKZNKr8jaAP1C/4Ivf8AKUf4Df8AY8WP/pu1Sv8AUx/aX+AHgH9qj9n/AMYfs5fFK3+0+HvGmlXOk3qgkMI7hCodCCCrxNh0YHIZQRzX+Wd/wRe/5Sj/AAG/7Hix/wDTdqlf61S/d/H+tAH+LV8ePgV8Q/2Xfjl4w/Zk+LCn/hI/AOqz6NeSEbRcLDhre7A3OQt1btHOuWJ+Y5ryiv7VP+DtX9gddP1Pwn/wUd8AWe2KQQeFPGXljja7H+yL5/mx8srNasQuW8yPJwtfxVgY4x9frQAV6P8AB74S/ED49/Fnwx8DvhTAbjxL4y1S30bS1A3bbi5OPOYYPyW6B529kx3rziv7F/8Ag05/YGj8b/ErxR/wUP8AiDY77Dws03hjwh5qfK964H9qXq5HPljbbIR0IbHWgD+y/wDYy/Zb8B/sXfsu+Cv2YfhvEqaX4O0uGwWQDDTzIAZ52OAS0shZiTyc1/mQf8F1P+UvP7Qf/Yy2H/pjsK/1hdoVMCv8nr/gup/yl5/aD/7GWw/9MdhQB+TFfo7/AMEg/wDlKD8Av+x50/8A9JL6vzir9Hf+CQf/AClB+AX/AGPOn/8ApJfUAf66dFFFABRRRQB//9D+/UrmvDv2hPCD+MvhJrOlRLulSDz4cdfMh+cY+uK90qrPFHLG0UgBBGD9K6cDinQrRqx3TTPOzbL44rCzw0tpJo/nxDbwHHcZ/OivS/jB4Lk8AfEjVfDW0rDHMZYM9DDL8y4+nI/CvNK/r3A4uNalCtDZq5/nfmmBnhsRLD1FrFtfcFFFFdRwBQRnvg+o4oooAiaCGTIkRWz1yoOfzrBvfB/hbUf+PzTreQ9cmMD+VdHXI+PNU8S6J4L1TVvBmnf2vq1vayPZ2e8R+fOB+7UseACeua4K2UYWr/Epp+qR7OX5ti4zUadVr5tH4tf8FUP2kPBHwQs7H4R/C+xtE8WXy+fcTqMmzgJ+Xjpuc9M9q/EW1/aM+NksZmn1knHX9zFz/wCO16t8QP2Sv27fH3j/AFbx98TPBGsX2uarcm4vJVWN03nosfz8RIPlQDoB6k1BY/sV/tXLhT4A1ZPdo1A/9CNY0eCcos3KhFv0R/T+V8RQoYaNL6xd21fNuzyG9/aT+MhOE1cgf9cYv/iazX/aU+MIBzq+f+2MX+FfTlp+xH+0rIAbnwTfqfUw5/ka2V/Yd+PoX5vBt6T72p/xqP8AU3KH/wAw8fuR6a4sj/z/AP8AyY+Rv+GmPjB0Gq/+QYv8K19L/aI+MV3cxwvqeN5xzDHg/pX1H/wxD8fF5TwXeZHpaHn9a6jwn/wTK/b0v/Epjl8E6HpMcz/JqF7qQkSGEjhvJjgyXxyU3Dn+KvguN+FsLTwvJgcKnOWmiWnmejl/GGFhLnxGISS8zk/gzpP7XH7SXie88HfBa8hu7vTYo57tpVhjit45SQpdip6kHAHJxWB+1z4B/b5/Y8tdJ1f4o+IrCPT9buDZ2l1ZRwyxvcCMy+UwaPKnapIzwcV/Sf8AsU/sdeGP2Pvhxc6Da3p1nxFrk4vNa1R0Ef2iYKFWOKMfcghUBUXrgZJLEk+jftSfsyfDj9rn4Man8GPicki2l6Umt7qAhZ7O7hO6G4hJyA6MARkEHoeK+Vw3g5TeX3mrVrfL0Pg6vjxOOa8sV/s97Xt+J/EW37S37V0k0iJ4tTK8hfslr09fu1ofCv8AaP8A2sPFnxP8N+GG8Qtfw6r4i0zTlhSytv30c15BFMnCE7fLL5IwQMnIxmv0C8c/8Eef26vCWsf2H4a0vwx480xCVg1FrttOmK5OPOgMUuDjGSGwTnAAxX6N/wDBPz/gk/rnwR+IVj+0L+0pfWN/4n0lX/sbR9KB/s/THdSjTs7c3FxtYorYVVBOFBJJ+LyXw3xlTFKnVo2inq2tD9O4j8U8po4CVWhVUpNaJb3/AEP2X8EfD7wf8OrGfSfBmnxadBPIJZUizhpAoXdyT2AFdtUaKR1qSv6qwmEhQpKlTVkuiP4dxuMqYiq61V3k92wooorpOM+h/wBlvwr/AMJP8ZNPklXMOlo14/plBsT/AMeNfsWijJNfD/7FfgVtM8I3vjm6TEuqyeXCT18iHv8ARmzX3DEuBX8x8f5l9ZzGXK9I6H9weEeQPBZPDn3lr9+34EtFFFfFn6gFFFFAH8r/APwduf8AKPzwN/2ULSv/AERc1/nWp9wfSv8ARS/4O3P+Ufngb/soWlf+iLmv861PuD6UAXLKVbW9guXztjkRzjrhSCa/tW/4I0/8F5f2H/2G/wDgnP8AD39mL40WviuTxL4Ziu4rxtK0O5vbQmW5eVTFPGu1/lYZx0PB5r+J+mGKJjuZQT7igD/Sm/4im/8Agmd/z5ePP/CZvf8A4mj/AIim/wDgmd/z5ePP/CZvf/ia/wA1jyov7i/kP8KPKi/uL+Q/woA/0p/+Ipv/AIJnf8+Xjz/wmb3/AOJo/wCIpv8A4Jnf8+Xjz/wmb3/4mv8ANY8qL+4v5D/Cjyov7i/kP8KAP9R79mP/AIOEv2DP2s/j54Z/Zy+Flr4uj8Q+LLh7axOo6Fc2ltvjiaZt80gCqNiH8cDqa8H/AODp45/4JiQH18ceGf8A0uSv4nP+CGyRr/wWk/Zt2KBnWtX6D/qET1/bD/wdOf8AKMK3/wCx48M/+l0dAH+a/wCn0Fauhf8AIesP+viH/wBDFZXp9BWroX/IesP+viH/ANDFAH+qJ/wb6f8AKHH4C/8AYtx/+jXr9l6/Gj/g30/5Q4/AX/sW4/8A0a9fsvQB/nAf8HYp/wCNm+iD/qn2k/8Apw1Cv5jq/rv/AODvb4L6zon7VHwq+PsFu40vxD4YvNCmnx8hvNNuxcRRZ/vGC4lcD0Vj2r+RA/d/KgDovB/ifU/A/jDRPHehiM6h4e1Ow1i0E2fLNxp9ylzEG28hWKbSRkgHODjFf6YX7Pv/AAcrf8EtPif8LLDxZ8V/HsXw38RGBDqOha9BNDPDPt+fyHVWiuYSwPlywsyt65yK/wAxur1rqmp2MZhsbqaBCclYpWQE+4UgUAf6S1h/wc5fsMfED9pH4e/s/fBHTNf16z8ca5ZaM/iO+sn0jTrU3xZISqXojuZ2eQLGu2HZlhlwSob9Sf8AgqH+x/Yft5fsF/Ev9l2aOJr7xJo8w0ySZPMWHUrb9/ZS7cjlJ0UjkfUV/kX6B4p8QeDdXj8Z+GJNmq6RJHqtk5Bc/a9NlS+t8gcnM1uq8HJBIBBOa/2av2fPixoHx6+BXg/40+F7lLzTvFmi2Or280TBkdLuBJQVI4I54IoA/wAYG9std028n0zxVatYatZzS2uoWrrsa3vbdzDcwsvOCkqsuMngCq1f2P8A/Byr/wAEb/EHgvxtrn/BSf8AZr0ee+0DWSs/j3S7JGlfT7iOMJ/bUMIyTbuiqt6sYypAmwQJM/xwkYCtkFXUOrKQysrDIZSMgqRyCOCOlAH9Pv8Awbaf8FXfAv7EvxS139lv9oa/j0r4f/EW8hvrPWJ22waVrYjitALhuiW17FHEnmHAimQbj++GP9GK1vrW/t47yylWWGRQ6SIQyMrcghhkEEdCDX+I+cEFSAQwKsCAQysMEEHIIIJBBGCDg8V+in7Lf/BV7/goH+xro1r4T/Z8+KWr6NoFo6tHol4sWr6UiIojEUNregyW8QAGIra5hjB6RgZBAP8AXW82Popz9Oa/Fz/gsf8A8Fcfhj/wTe+A2p2HhjU7LUPi/rtlNH4Y0Nj53lTMNov7+JWUxWVuSGcsVMhxFHl2Ar+HD4rf8HDf/BWT4qaWNEuPiw+gWrK6yf8ACO6NY6ZcSBhjBnka/Kjnqiq2f4vX8ZfFHibXfGevXvirxVfXOqapqUiy3t7fXE13eXUijCvcXNwzzzuBwDI52jhdo4oA/rK/Z2/4O3v2qvCMsGlftKfD7w/45sVdUkvdGmk0LUTH03fZrg3Nmz+o+1ID1H92v3v/AGe/+Dmz/gl18ZUtLT4ia/qfwq1G6JXyvFtk1taKy9hqUPnWLZ6jE/Iyexx/mUqNzCNAWLEBVUZJJ6AAck+wr+gz/ghR/wAEefGf7f3xntPi58T7OW0+C/he8zrM0ifutfntyCNGt88SQlwP7QkGUEam1BLSTeWAf6ZGha5o/ibRLPxJ4fuEu7C/hjuLaeI7kkilAaN1PcMCCD6V/Pj/AMHS/wDyh98W/wDYx+F//Txb1/Q5a20Nnbpa2yrGkahUVRhVVRgAAdAB0r+eP/g6X/5Q++Lf+xj8L/8Ap4t6AP8AM6b7xpAcHNK33jTaAP7BP+CEn/BbT9jb/gnz+xNP8Bfj1beKJNdbxPq2qg6Potxf232e8k3xfvogV3Y+8vUGv2i/4inP+CZX/Pn48/8ACYvf/ia/zVmjic5dQx9xmm+Rb/8APNf++RQB/pV/8RTn/BMr/nz8ef8AhMXv/wATR/xFOf8ABMr/AJ8/Hn/hMXv/AMTX+ap5Fv8A881/75FHkW//ADzX/vkUAf6Vf/EU5/wTK/58/Hn/AITF7/8AE13/AMJ/+Dk3/gnj8afil4b+D3gy08bDV/FeqWmkWRuPDl5FCLi9mWGLzZGXaibmG5jwoyTwK/zFfIt/+ea/98ivtz/gmlBAP+CiPwKYIoI8eaHggD/n4FAH+uP8aM/8Kd8XE/8AQFv/AP0nev8AFV0r/kAaT/2DbH/0lir/AGq/jR/yRvxd/wBgbUP/AEnev8VTSv8AkAaT/wBg2x/9JYqALlfvb/wQE/4KN/s+/wDBOT9obx38QP2hYNbl07xD4YtNLtDounS6jJ59ve3E7b44QTGu2VcMcAnOM4NfglTSiOMOAw9xmgD/AEpP+Ip3/gmb/wA+Xj3/AMJi8/8AiaT/AIinP+CZn/Pj49/8Ji8/+Jr/ADWfIt/+ea/98ijyLf8A55r/AN8igD/Sn/4inf8Agmb/AM+Xj3/wmLz/AOJo/wCIpv8A4Jl/8+Xj3/wmLz/4mv8ANY8i3/55r/3yKPIt/wDnmv8A3yKAP9Khv+Dp7/gmUiFms/HgABJP/CMXnAH4V++/wV+LXhj48fCLwz8avBKXKaP4s0u11axW7ha3uBb3kQmiE0LgNG+xhuRgCp4PNf4pHiSGAeGdU2ooIsrnoP8Apk1f7GP/AATa/wCUf/wW/wCxJ0L/ANIoqAP813/guv8A8pZPj3/2NUH/AKZNKr8ja/XL/guv/wApZPj3/wBjVB/6ZNKr8jaAP1C/4Ivf8pR/gN/2PFj/AOm7VK/1qV6fif51/krf8EXv+Uo/wG/7Hix/9N2qV/rUr0/E/wA6APn79qr9nTwF+1r+zr4y/Zt+J8Pn6H4z0m50q5xwyCeMhZEI5DxNh1I5BHFf48Xx8+D/AIv/AGXPjf4r/Zx+NE9rY+KPBOpzaTfrPPDD5zQkGK5RXcfurmExzpjICuBnINf7UdfPvjf9lj9mz4k+I5/GHxB8A+Hta1W5CCa8vtNt7ieQIu1d0joWOBwMngUAf45Hwg+GfjP9of4p+HfgT8E3tdU8WeL9Rt9J0u3t7iGZhPcsF85ljZz5UC7pXOMBUOa/2E/2MP2XPh/+xb+zD4K/Zg+GUKx6R4O0uCwWQABriZVzPcOQBl5pCzsTyc10Pg/9lP8AZm+HviS18YeBfh94d0fVrIsbe8stMtoJ4i6lGKSRoGXKkg4PQ19BqqrwoxQAN92v8nj/AILqf8pef2g/+xlsP/THYV/rDt92v8nj/gup/wApef2g/wDsZbD/ANMdhQB+TFfo7/wSD/5Sg/AL/sedP/8ASS+r84q/R3/gkH/ylB+AX/Y86f8A+kl9QB/rp0UUUAFFFFAH/9H+/ikOMc0tIc44oA+Ef2zfhs+raHb/ABF0xP3um/ubgDqYHPB/4C36GvzWr9/tW0m01rTLjSdSjEtvcI0boehVhgivxQ+Lvw2vvhb41ufDd0D9mJMlpKekkJ6fivQ1+5+GPESnSeAqPVbeh/KXjhwf7HELM6K92WkvXueYUU1G2cnvUnGOv6V+un8+DaKKKACkIyMUtFAC7nH8R/M0b3/vH8zSUUGvtPIXe/8AeP5mje/94/maSigft32F3v8A3j+ZpKKKCJTuFFFFBA0qD2zTqKKACiiigArpvBvhXUPG/iix8KaUpM19IIwR/Cp+8x9gMmuZr9K/2PPhG2i6O/xK1yLbdaguy0VuqW/dsdjIf0r5bi/PoZfg3P7T0Xqfe+HXCks1zGNF/CtZenY+yfC3h6x8L6BaeH9LXy7eziWGMeyjH69a6PpTU+7TiMjFfyzKTk+aR/d1KmoRUI7IWiiikahRRRQB/L5/wdaeEvFHjP8AYO8E6R4S0y/1W5Xx7p0zRafZXV9IscVrdMzNHZwzuqgDG4qF3EDIJGf8/Vf2efjiFA/4Q7xJx/1L2u//ACvr/aJkjRxhwD9Rmofstt/cH/fI/wAKAP8AF+/4Z6+OH/Qm+I//AAntc/8AldR/wz18cP8AoTfEf/hPa5/8rq/2gfstt/cH/fI/wo+y239wf98j/CgD/F+/4Z6+OH/Qm+I//Ce1z/5XUf8ADPXxw/6E3xH/AOE9rn/yur/aB+y239wf98j/AAo+y239wf8AfI/woA/xfv8Ahnr44f8AQm+I/wDwntc/+V1H/DPXxw/6E3xH/wCE9rn/AMrq/wBoH7Lbf3B/3yP8KPstt/cH/fI/woA/yu/+CJfwD+MGi/8ABXv4AeMda8Na1YWGk6zqTXM93o2q2sSCfTJ4lzNcWUUK5bj5nHOAMkgV/Yz/AMHPXhjxN4t/4JoxaZ4S0y91e5Xxl4dmMGn2s93N5cV4ru3lW8ckhCqCThT07nAr+iwW0IOQg/IVK0UbjDCgD/F7/wCGdfjp/wBCZ4k/8J3Xf/lfWhpH7PfxwtdWtbqbwb4l2RTRu2PDmuE4VgT/AMw+v9nD7PD/AHB+Qo+zw/3B+QoA/IX/AIILaDrvhb/gkX8DvDviayuNP1Cy0BYZ7a7he3mjdJpAVaKUKyke4FfsFUCxBMBAAKnoA/Oz/gpz/wAE8/hz/wAFLP2WNV/Z88a3A0jVI5BqPh/W1iE0mlapCjLDcBDjfGys0U8WQJIXZCea/wAw39tL/gm/+19+wN4su/DP7SHg+902ytj+616zgnvNBu0Bx50F9EjiJOhK3YgdM4JcAuf9gWs2/wBK07VrRrDVbeO5hf70cqB0P1VsigD/ABE31fQY22tqmnHPpfWp/wDalbGiWh8S6rBofhqSPVb66OIrXTSdRuHPtDZC4k/8dr/Y48SfsL/sZ+MNU/tzxT8KvCd/dg586bSLRnz65MdeueDPgn8Hfh1Ctv4B8K6RoqIAF+w2UEGAOn3EFAH+WL+yl/wRZ/4KY/tSalY6p8NfhXqWkaY0u4at4tB0DTx5ZByY51e/cMemLRQwyQ2MZ/0lP+CZH7L3xT/Yt/YY+Hf7LPxg8Q2fijWfBGm/2Z/aFhBJbwNbxu32eMJK7sTDCUjLZAYrkBQdo+9to706gCld2lteW8lpdxrLFKpR0cBlZWGCCDwQRwQetfyHf8FOP+DXLwD8Ztc1L41/8E/r+y8E67esZ7vwlqG5dCupiSzvZyRAvp0khPzBVe3JGTDuJNf1/UmM8UAf47X7S3/BPv8AbM/ZE1m80j9oP4Z+IvDkVmHY3/2CbUNMkRCQWiv9PWeEpgbgZRAxUglRyB8Utq2gBBJ/aumlT0xfWufyMmR+Ir/bvubK0vrdra8iWWJ+CjgMpH0ORXz/AOM/2Rf2WviG27x18OfDWrHr/pOl2shz7kx0Af4x8eraDJ01XThj1vrYfzkr6b+AX7I37TH7UuqW2k/s6eAfEPjZrosEl0jTpmtcL1Y31yLexC54z9oPsDzX+uB4T/Ym/ZA8C3P27wb8L/Cumzf34NJtEP6R19HabpGl6Nbix0e2itYV6Rwosaj6BQBQB/Db/wAE7/8Ag1M8TarfWPxG/wCCjWsQWWm4Dt4K0GUyS3CkD91qWp4QiM/xQ2qx5+6zuvX+2P4a/DD4ffBvwJpXwv8AhVotn4f8OaFbJaafpthEsFtbQRjascUaABQB+degqoUYFOoAK/n6/wCDmfwj4l8df8EmfFfhvwlYXWpX0mveHJFgs7ae7lKw6pBIxENtHJI2FUk7VOO/Ff0C1FJGj8OoP1GaAP8AF+P7O3x0J48GeJf/AAndd/8AlfSf8M6fHX/oTPEv/hO67/8AK+v9n37Lbf3B/wB8j/Cj7Lbf3B/3yP8ACgD/ABgv+GdPjr/0JniX/wAJ3Xf/AJX0f8M6fHX/AKEzxL/4Tuu//K+v9n37Lbf3B/3yP8KPstt/cH/fI/woA/xgf+Gdfjp/0JniT/wndd/+V9KP2dPjqengzxL/AOE7rv8A8r6/2ffstt/cH/fI/wAKPstt/cH/AHyP8KAP8YH/AIZ1+On/AEJniT/wndd/+V9fZP8AwTs+B3xj8Pft9/BLW9X8JeIbe0tfHOhyTSy6BrMUaJ9rVSzPJYqiqCQWZ2VVGSSADX+tr9ltv7g/75H+FL9lgH8C/wDfIoA82+MqtJ8HvFcKKWZtHvwAoJJJgfgAck+wr/G70n9nf47f2Fpkc3grxLFJHYWkbo3h7WyVeOBFYErYMpwQRkEg9jiv9pTYuMYqLyIv7g/IUAf4vv8Awzv8c/8AoTfEn/hO67/8r6P+Gd/jn/0JviT/AMJ3Xf8A5X1/tA+RH/cH5CjyI/7g/IUAf4v3/DO/xz/6E3xJ/wCE7rv/AMr6P+Gd/jn/ANCb4k/8J3Xf/lfX+0D5Ef8AcH5CjyI/7g/IUAf4v3/DO/xz/wChN8Sf+E7rv/yvo/4Z3+Of/Qm+JP8Awndd/wDlfX+0D5Ef9wfkKPIj/uD8hQB/i2az+zb8d77RL2xh8G+JN09tNEufD2uY3PGVH/MP9TX+uD/wTjgubP8AYF+DFpewzW0yeCtDV4riKSCZGFnFlHimVJI2HQq6qynggHivtPyIv7g/IVKqhRgUAf5aP/Bbj4MfFzxL/wAFVvjrqug+FddvbS58SwSwXFrouqXcEsf9jaZHujltbSaJsOjKcNkEcjpX5Tf8M6/HP/oTPEv/AITuu/8AyBX+0F5MWSSBz7Ck8iP+4PyFAH+VR/wR8+C3xd8M/wDBTj4FarrnhPX7S1g8ZWk01xc6JqtrBFGtjqEZaSa5s4okG6RBy3f0BNf6rS9PxP8AOmiCMYOBx7Cp6ACiiigAooooAa33a/yyP+C2/wAEvi94k/4Kx/HrXNC8Ka7eWV74hspbe5tdG1S6glRdGsYy0ctraTRMA4ZThs5Br/U5qDyIs52jP0FAH+MB/wAM5/HT/oTfEn/hO67/APK+v0I/4JO/A/4v+Hf+ClvwK1rW/CmvWlpaeNdPmmnuNE1a2hjjEF1GWeS4soolG6VRyw61/q7+QnoPyH+FHkx5+4PyFAE9FFFABRRRQB//0v7+KKKKAIic/jXgfx7+D1r8V/CTW9sBHqdnmW0m4yG7of8AZbv7817/AI5zTdgK47V04HGzw9WNak7NHnZtldHG4aWFrq8ZKx/P3qmk3+kX02l6pE1tcW7mOaJhhkccEY/UVnDPc5r9VP2kv2ex8QLRvGHhJFTWbdfnj4UXKL0Uns4/hP4Htj8tLq1uLG6ksr2JopoWKSRuCrKw6gg8g1/UHC3E1LMsPzfaW67f8A/hjjjgnE5PinSmr038L8ivS4OM0lFfTnw4UUUUAFFFFABRRRQAUUUUAFFFFABRRRQAUUV6/wDBz4Pa/wDFzxANPsd0NhCR9pusZWNfROxc9h26muHMMxo4ai61Z2SPVyfKK+OrrDYeN5M6/wDZ2+CE/wAVvEf9pauhXQ9PcG4bp5zjkQqffq5HQcdTX6921vHaRJDAoVEAVVUYAA4AA7AVg+EPCGheCdAtvDPh2AW9rartVR1J7sT3JPJPc11OBX8v8T8RVMxxLqS+FbI/uTgTgujk2CVFazesn3f+SJKKKK+dPtwooooAKKKKACiiigAooooAKKKKACiiigAooooAKKKKACiiigAooooAKKKKACiiigAooooAKKKKACiiigAooooAKKKKACiiigAooooAKKKKACiiigAooooAKKKKACiiigAooooAKKKKACiiigAooooAKKKKACiiigAooooAKKKKACiiigAooooA/9P+/iiiigAooooAiZflweBXyp8ev2ctM+JsJ13w7sstaRcbyPkmA/hkx+jdfwr6t3dKUjjFd2W5nWwlVVaDs0eNnmQ4bMMO8PiY3i/60PwG8ReF9e8IavJoHiS2ezuoCQ0bDAI7Mp7g9iDWIVIGfzr9xfiL8KvB3xN0r+zfFVsHxnypV+WWInujdvocg+lfmx8Uf2WfHvgJpL/w+p1rTBk74l/foo/voOv1XP0FfvvDXiHhcXFU8T7s/wAH6H8lca+EeNy5uphFz0/Ldeq/yPl+igg7tp4KnBB4IPuKK/RINS2Px5xa91hRRRTEFFFFABRRRQAUUUVXKwCium8KeDfFPjfUl0jwpYyXsx6iMfKo9WY8AfU1+gvwj/Y60rRjFrvxLZNQuRhls1/490P+2eshHpwv1r5bP+L8Hl8ffd5dkfdcKeHuY5rNexjaPWT2PmD4J/s6eJfitdx6nqIfTtEU5a4Iw8o/uwg9fdug96/V3wl4Q0DwPocHh7w3bLbWtuPlVepPck9ST3JroLa2gs4kt7ZFjjRQqqowAB0AA4AFWxuNfz1xFxTicxqc1R2j0XQ/r7g3gPB5LRtRV5veXX/hhVUr3p9FFfNn3AUUUUAFFFFABRRRQAUUUUAFFFFABRRRQAUUUUAFFFFABRRRQAUUUUAFFFFABRRRQAUUUUAFFFFABRRRQAUUUUAFFFFABRRRQAUUUUAFFFFABRRRQAUUUUAFFFFABRRRQAUUUUAFFFFABRRRQAUUUUAFFFFABRRRQAUUUUAFFFFABRRRQAUUUUAFFFFAH//U/v4ooooAKKKKACiiigBrDIxUIh7GrFFAWPDfH37Pvwz+IwefWLBYbpv+Xm2/dS59SRw34ivjnxl+xP4p04PceCtRhvkH3YZx5UmPTcMqT+VfptnHWmlTivpMq4tx+D0oz07PY+Iz3w+yrMLutSV+60Z+GXiD4QfFHwsWOt6DeIinG9I/MT84815vMfs8nlXIMTDtICh/XFf0ImEMMECuf1Hwl4Y1kY1TT7a6z/z1iRv5ivvMH4sVY6V6SfpoflOYfR+ott4as16q/wCVj8DVdG+6wP0NOyp7/rX7dXfwI+EF8d914dsSfaJV/liqY/Z3+CysGHhyzz/uf/Xr1o+LOG60X+B4cvo/YvpWj9zPxO8yIdXUH0JGa19N0LXNYkEOjWVxdseghiZs/kK/brT/AIR/DXSSpsNCsYivQiBMj8SK7m2sLWyTyrWJY1HZFCj9BXDifFr/AJ80vvZ34H6Pjv8A7RX+5H4+eFP2XvjF4oKSvpw02FsfPeOEIB77Blq+rfA/7FXhHTCl345vpNUlXkwxDyYc+/8AER+Ir7gEW3pTguOWr43M/EDMcT7qlyryP0rJPCTJ8E1Lk55d5f5bHN+H/C2g+FtPTSfD1pFZ26DCpEoUfj6n65rp1UL0pMjoTQFIXFfF1Kjm+aW5+l06UaaUKash9FFFSahRRRQAUUUUAFFFFABRRRQAUUUUAFFFFABRRRQAUUUUAFFFFABRRRQAUUUUAFFFFABRRRQAUUUUAFFFFABRRRQAUUUUAFFFFABRRRQAUUUUAFFFFABRRRQAUUUUAFFFFABRRRQAUUUUAFFFFABRRRQAUUUUAFFFFABRRRQAUUUUAFFFFABRRRQAUUUUAFFFFAH/1f7+KKKKACiiigAooooAKKKKACiiigAooooAKKKKACiiigAooooAKKKKACiiigAooooAKKKKACiiigAooooAKKKKACiiigAooooAKKKKACiiigAooooAKKKKACiiigAooooAKKKKACiiigAooooAKKKKACiiigAooooAKKKKACiiigAooooAKKKKACiiigAooooAKKKKACiiigAooooAKKKKACiiigAooooAKKKKACiiigAooooAKKKKACiiigD/1v7+KKKKACiiigAooooAKKKKACiiigAooooAKKKKACiiigAooooAKKKKACiiigAooooAKKKKACiiigAooooAKKKKACiiigAooooAKKKKACiiigAooooAKKKKACiiigAooooAKKKKACiiigAooooAKKKKACiiigAooooAKKKKACiiigAooooAKKKKACiiigAooooAKKKKACiiigAooooAKKKKACiiigAooooAKKKKACiiigAooooAKKKKACiiigD/1/7+KKKKACiiigAooooAKKKKACiiigAooooAKKKKACiiigAooooAKKKKACiiigAooooAKKKKACiiigAooooAKKKKACiiigAooooAKKKKACiiigAooooAKKKKACiiigAooooAKKKKACiiigAooooAKKKKACiiigAooooAKKKKACiiigAooooAKKKKACiiigAooooAKKKKACiiigAooooAKKKKACiiigAooooAKKKKACiiigAooooAKKKKACiiigD/2Q==;" parent="1" vertex="1">
          <mxGeometry x="682.1" y="72" width="109.4" height="38" as="geometry" />
        </mxCell>
        <mxCell id="o9p465xVWqtDFQp3389N-36" value="Amazon RDS" style="sketch=0;outlineConnect=0;fontColor=#232F3E;gradientColor=none;strokeColor=#ffffff;fillColor=#232F3E;dashed=0;verticalLabelPosition=middle;verticalAlign=bottom;align=center;html=1;whiteSpace=wrap;fontSize=10;fontStyle=1;spacing=3;shape=mxgraph.aws4.productIcon;prIcon=mxgraph.aws4.rds;" parent="1" vertex="1">
          <mxGeometry x="1110" y="132.5" width="80" height="100" as="geometry" />
        </mxCell>
        <mxCell id="Bmr6mjaVhDHBtddAEu46-2" value="&lt;b&gt;LangFlow Dev DB&lt;/b&gt;" style="rounded=0;whiteSpace=wrap;html=1;fillColor=#d0cee2;strokeColor=#56517e;" parent="1" vertex="1">
          <mxGeometry x="920" y="146.5" width="159" height="30" as="geometry" />
        </mxCell>
        <mxCell id="Bmr6mjaVhDHBtddAEu46-3" value="&lt;b&gt;LiteLLM DB&lt;/b&gt;" style="rounded=0;whiteSpace=wrap;html=1;fillColor=#d0cee2;strokeColor=#56517e;" parent="1" vertex="1">
          <mxGeometry x="920" y="190.5" width="159" height="30" as="geometry" />
        </mxCell>
        <mxCell id="_v2L5gnWxGQKS_tVc0L4-16" value="&lt;b&gt;PROD NAMESPACE&lt;/b&gt;" style="text;html=1;align=center;verticalAlign=middle;whiteSpace=wrap;rounded=0;" parent="1" vertex="1">
          <mxGeometry x="170" y="212.5" width="129.5" height="25" as="geometry" />
        </mxCell>
        <mxCell id="_v2L5gnWxGQKS_tVc0L4-18" value="&lt;b&gt;Langflow Dev&lt;/b&gt;" style="text;html=1;align=center;verticalAlign=middle;whiteSpace=wrap;rounded=0;" parent="1" vertex="1">
          <mxGeometry x="304.5" y="110" width="127" height="30" as="geometry" />
        </mxCell>
        <mxCell id="_v2L5gnWxGQKS_tVc0L4-20" value="&lt;b&gt;LiteLLM Proxy Server&lt;/b&gt;" style="text;html=1;align=center;verticalAlign=middle;whiteSpace=wrap;rounded=0;" parent="1" vertex="1">
          <mxGeometry x="643" y="110" width="190" height="30" as="geometry" />
        </mxCell>
        <mxCell id="Gzei0iriQH9O1OCMe5k4-14" style="edgeStyle=orthogonalEdgeStyle;rounded=0;orthogonalLoop=1;jettySize=auto;html=1;entryX=1;entryY=0.5;entryDx=0;entryDy=0;fillColor=#dae8fc;strokeColor=#6c8ebf;" edge="1" parent="1" source="_v2L5gnWxGQKS_tVc0L4-26" target="Gzei0iriQH9O1OCMe5k4-13">
          <mxGeometry relative="1" as="geometry" />
        </mxCell>
        <mxCell id="_v2L5gnWxGQKS_tVc0L4-26" value="" style="html=1;verticalLabelPosition=bottom;align=center;labelBackgroundColor=#ffffff;verticalAlign=top;strokeWidth=2;strokeColor=#0080F0;shadow=0;dashed=0;shape=mxgraph.ios7.icons.user;" parent="1" vertex="1">
          <mxGeometry x="280" y="-105.62" width="60" height="60" as="geometry" />
        </mxCell>
        <mxCell id="_v2L5gnWxGQKS_tVc0L4-27" value="&lt;b&gt;USER&lt;/b&gt;" style="text;html=1;align=center;verticalAlign=middle;whiteSpace=wrap;rounded=0;" parent="1" vertex="1">
          <mxGeometry x="333" y="-90.62" width="60" height="30" as="geometry" />
        </mxCell>
        <mxCell id="Gzei0iriQH9O1OCMe5k4-18" style="edgeStyle=orthogonalEdgeStyle;rounded=0;orthogonalLoop=1;jettySize=auto;html=1;entryX=0;entryY=0.5;entryDx=0;entryDy=0;fillColor=#dae8fc;strokeColor=#6c8ebf;" edge="1" parent="1" source="_v2L5gnWxGQKS_tVc0L4-33" target="Gzei0iriQH9O1OCMe5k4-13">
          <mxGeometry relative="1" as="geometry">
            <Array as="points">
              <mxPoint x="-150" y="-76" />
            </Array>
          </mxGeometry>
        </mxCell>
        <mxCell id="Gzei0iriQH9O1OCMe5k4-19" style="edgeStyle=orthogonalEdgeStyle;rounded=0;orthogonalLoop=1;jettySize=auto;html=1;entryX=0.5;entryY=0;entryDx=0;entryDy=0;fillColor=#dae8fc;strokeColor=#6c8ebf;" edge="1" parent="1" source="_v2L5gnWxGQKS_tVc0L4-33" target="_v2L5gnWxGQKS_tVc0L4-46">
          <mxGeometry relative="1" as="geometry" />
        </mxCell>
        <mxCell id="_v2L5gnWxGQKS_tVc0L4-33" value="" style="shape=image;verticalLabelPosition=bottom;labelBackgroundColor=default;verticalAlign=top;aspect=fixed;imageAspect=0;image=https://miro.medium.com/v2/resize:fit:800/0*ZoXaXztJdbGgb4fk.png;imageBackground=default;imageBorder=default;" parent="1" vertex="1">
          <mxGeometry x="-210" y="36.5" width="110" height="110" as="geometry" />
        </mxCell>
        <mxCell id="_v2L5gnWxGQKS_tVc0L4-38" value="" style="shape=image;verticalLabelPosition=bottom;labelBackgroundColor=default;verticalAlign=top;aspect=fixed;imageAspect=0;image=https://cdn.prod.website-files.com/5f10ed4c0ebf7221fb5661a5/5f2f630735aafe2300802edd_git-logo.png;" parent="1" vertex="1">
          <mxGeometry x="170" y="-110" width="55" height="41.25" as="geometry" />
        </mxCell>
        <mxCell id="_v2L5gnWxGQKS_tVc0L4-51" style="edgeStyle=orthogonalEdgeStyle;rounded=0;orthogonalLoop=1;jettySize=auto;html=1;exitX=0.5;exitY=1;exitDx=0;exitDy=0;" parent="1" source="_v2L5gnWxGQKS_tVc0L4-44" target="_v2L5gnWxGQKS_tVc0L4-17" edge="1">
          <mxGeometry relative="1" as="geometry" />
        </mxCell>
        <mxCell id="_v2L5gnWxGQKS_tVc0L4-44" value="" style="rounded=0;whiteSpace=wrap;html=1;" parent="1" vertex="1">
          <mxGeometry x="410" y="-110" width="259" height="90" as="geometry" />
        </mxCell>
        <mxCell id="_v2L5gnWxGQKS_tVc0L4-43" value="" style="shape=image;verticalLabelPosition=bottom;labelBackgroundColor=default;verticalAlign=top;aspect=fixed;imageAspect=0;image=https://miro.medium.com/v2/resize:fit:404/1*bJQKIIM_KVuDXR3nR7xaDw.png;" parent="1" vertex="1">
          <mxGeometry x="419" y="-105.62" width="94" height="85.62" as="geometry" />
        </mxCell>
        <mxCell id="_v2L5gnWxGQKS_tVc0L4-45" value="&lt;b&gt;Kitchen-Umbrella Chart&lt;/b&gt;" style="text;html=1;align=center;verticalAlign=middle;whiteSpace=wrap;rounded=0;" parent="1" vertex="1">
          <mxGeometry x="513" y="-77.80999999999995" width="146" height="30" as="geometry" />
        </mxCell>
        <mxCell id="_v2L5gnWxGQKS_tVc0L4-58" style="edgeStyle=orthogonalEdgeStyle;rounded=0;orthogonalLoop=1;jettySize=auto;html=1;entryX=0;entryY=0.5;entryDx=0;entryDy=0;" parent="1" source="_v2L5gnWxGQKS_tVc0L4-46" target="o9p465xVWqtDFQp3389N-20" edge="1">
          <mxGeometry relative="1" as="geometry" />
        </mxCell>
        <mxCell id="_v2L5gnWxGQKS_tVc0L4-59" style="edgeStyle=orthogonalEdgeStyle;rounded=0;orthogonalLoop=1;jettySize=auto;html=1;exitX=1;exitY=0.5;exitDx=0;exitDy=0;entryX=0;entryY=0.5;entryDx=0;entryDy=0;" parent="1" source="_v2L5gnWxGQKS_tVc0L4-46" target="o9p465xVWqtDFQp3389N-23" edge="1">
          <mxGeometry relative="1" as="geometry" />
        </mxCell>
        <mxCell id="_v2L5gnWxGQKS_tVc0L4-46" value="" style="rounded=0;whiteSpace=wrap;html=1;" parent="1" vertex="1">
          <mxGeometry x="-190" y="267.5" width="259" height="90" as="geometry" />
        </mxCell>
        <mxCell id="_v2L5gnWxGQKS_tVc0L4-47" value="" style="shape=image;verticalLabelPosition=bottom;labelBackgroundColor=default;verticalAlign=top;aspect=fixed;imageAspect=0;image=https://miro.medium.com/v2/resize:fit:404/1*bJQKIIM_KVuDXR3nR7xaDw.png;" parent="1" vertex="1">
          <mxGeometry x="-181" y="271.88" width="94" height="85.62" as="geometry" />
        </mxCell>
        <mxCell id="_v2L5gnWxGQKS_tVc0L4-48" value="&lt;b&gt;Langflow-Runtime Chart&lt;/b&gt;" style="text;html=1;align=center;verticalAlign=middle;whiteSpace=wrap;rounded=0;" parent="1" vertex="1">
          <mxGeometry x="-87" y="299.69000000000005" width="146" height="30" as="geometry" />
        </mxCell>
        <mxCell id="_v2L5gnWxGQKS_tVc0L4-49" style="edgeStyle=orthogonalEdgeStyle;rounded=0;orthogonalLoop=1;jettySize=auto;html=1;exitX=0.5;exitY=1;exitDx=0;exitDy=0;entryX=0.934;entryY=0.033;entryDx=0;entryDy=0;entryPerimeter=0;" parent="1" source="_v2L5gnWxGQKS_tVc0L4-44" target="_v2L5gnWxGQKS_tVc0L4-25" edge="1">
          <mxGeometry relative="1" as="geometry" />
        </mxCell>
        <mxCell id="_v2L5gnWxGQKS_tVc0L4-52" value="&lt;b&gt;One Helm Release&lt;/b&gt;" style="text;html=1;align=center;verticalAlign=middle;whiteSpace=wrap;rounded=0;" parent="1" vertex="1">
          <mxGeometry x="528.5" y="-20" width="140" height="30" as="geometry" />
        </mxCell>
        <mxCell id="_v2L5gnWxGQKS_tVc0L4-60" value="&lt;b&gt;One Helm&lt;/b&gt;&lt;div&gt;&lt;b&gt;&amp;nbsp;Release&amp;nbsp;&lt;/b&gt;&lt;div&gt;&lt;b&gt;Per Flow&lt;/b&gt;&lt;/div&gt;&lt;/div&gt;" style="text;html=1;align=center;verticalAlign=middle;resizable=0;points=[];autosize=1;strokeColor=none;fillColor=none;" parent="1" vertex="1">
          <mxGeometry x="70" y="257.5" width="80" height="60" as="geometry" />
        </mxCell>
        <mxCell id="Gzei0iriQH9O1OCMe5k4-10" style="edgeStyle=orthogonalEdgeStyle;rounded=0;orthogonalLoop=1;jettySize=auto;html=1;entryX=0.065;entryY=-0.04;entryDx=0;entryDy=0;entryPerimeter=0;fillColor=#dae8fc;strokeColor=#6c8ebf;" edge="1" parent="1" source="_v2L5gnWxGQKS_tVc0L4-26" target="o9p465xVWqtDFQp3389N-16">
          <mxGeometry relative="1" as="geometry" />
        </mxCell>
        <mxCell id="Gzei0iriQH9O1OCMe5k4-17" style="edgeStyle=orthogonalEdgeStyle;rounded=0;orthogonalLoop=1;jettySize=auto;html=1;entryX=0.5;entryY=0;entryDx=0;entryDy=0;fillColor=#dae8fc;strokeColor=#6c8ebf;" edge="1" parent="1" source="Gzei0iriQH9O1OCMe5k4-13" target="_v2L5gnWxGQKS_tVc0L4-46">
          <mxGeometry relative="1" as="geometry" />
        </mxCell>
        <mxCell id="Gzei0iriQH9O1OCMe5k4-13" value="" style="rounded=0;whiteSpace=wrap;html=1;" vertex="1" parent="1">
          <mxGeometry x="-40" y="-102.03" width="160" height="52.81" as="geometry" />
        </mxCell>
        <mxCell id="Gzei0iriQH9O1OCMe5k4-11" value="" style="shape=image;verticalLabelPosition=bottom;labelBackgroundColor=default;verticalAlign=top;aspect=fixed;imageAspect=0;image=https://miro.medium.com/v2/resize:fit:1125/1*dDNpLKu_oTLzStsDTnkJ-g.png;" vertex="1" parent="1">
          <mxGeometry x="-25.190000000000005" y="-99.02000000000001" width="119.19" height="44.18" as="geometry" />
        </mxCell>
        <mxCell id="Gzei0iriQH9O1OCMe5k4-15" value="&lt;b&gt;Code Commit&lt;/b&gt;" style="text;html=1;align=center;verticalAlign=middle;resizable=0;points=[];autosize=1;strokeColor=none;fillColor=none;" vertex="1" parent="1">
          <mxGeometry x="150" y="-77.81" width="100" height="30" as="geometry" />
        </mxCell>
        <mxCell id="Gzei0iriQH9O1OCMe5k4-20" value="&lt;b&gt;Trigger Build Event&lt;/b&gt;" style="text;html=1;align=center;verticalAlign=middle;resizable=0;points=[];autosize=1;strokeColor=none;fillColor=none;" vertex="1" parent="1">
          <mxGeometry x="-60" y="110" width="130" height="30" as="geometry" />
        </mxCell>
      </root>
    </mxGraphModel>
  </diagram>
</mxfile>
